<!-- icon666.com - MILLIONS OF FREE VECTOR ICONS --><svg id="Layer_1" viewBox="0 0 512 512" xmlns="http://www.w3.org/2000/svg" data-name="Layer 1"><circle cx="256.436" cy="255.984" r="50.729" transform="matrix(.924 -.383 .383 .924 -78.441 117.619)"></circle><path d="m337.544 142.693h-163.089c-21.527 0-31.762 10.234-31.762 31.762v163.09c0 21.528 10.235 31.762 31.762 31.762h163.089c21.528 0 31.763-10.234 31.763-31.762v-163.09c0-21.528-10.235-31.762-31.763-31.762zm-81.108 183.389a70.1 70.1 0 1 1 70.1-70.1 70.1 70.1 0 0 1 -70.1 70.1zm77.847-129.918a18.447 18.447 0 1 1 18.446-18.447 18.447 18.447 0 0 1 -18.446 18.447z"></path><path d="m256 41c-118.741 0-215 96.259-215 215s96.259 215 215 215 215-96.259 215-215-96.259-215-215-215zm133.733 309.592a39.256 39.256 0 0 1 -39.141 39.141h-189.184a39.256 39.256 0 0 1 -39.141-39.141v-189.184a39.256 39.256 0 0 1 39.141-39.141h189.184a39.256 39.256 0 0 1 39.141 39.141z"></path></svg>