<!-- icon666.com - MILLIONS OF FREE VECTOR ICONS --><svg viewBox="0 0 64 64" xmlns="http://www.w3.org/2000/svg"><g id="_01_Money" data-name="01 Money"><path d="m59 16h-54a3.0033 3.0033 0 0 0 -3 3v26a3.0033 3.0033 0 0 0 3 3h54a3.0033 3.0033 0 0 0 3-3v-26a3.0033 3.0033 0 0 0 -3-3zm-1 24a1 1 0 0 1 -1 1 2.002 2.002 0 0 0 -2 2 1 1 0 0 1 -1 1h-44a1 1 0 0 1 -1-1 2.002 2.002 0 0 0 -2-2 1 1 0 0 1 -1-1v-16a1 1 0 0 1 1-1 2.002 2.002 0 0 0 2-2 1 1 0 0 1 1-1h44a1 1 0 0 1 1 1 2.002 2.002 0 0 0 2 2 1 1 0 0 1 1 1z" fill="#000000" style="fill: rgb(215, 23, 42);"></path><path d="m53.1265 22h-42.253a4.0151 4.0151 0 0 1 -2.8735 2.8735v14.253a4.0151 4.0151 0 0 1 2.8735 2.8735h42.253a4.0151 4.0151 0 0 1 2.8735-2.8735v-14.253a4.0151 4.0151 0 0 1 -2.8735-2.8735zm-36.1265 13a3 3 0 1 1 0-6 3 3 0 0 1 0 6zm15 5.0261a8.0223 8.0223 0 0 1 -8-8.0261c.4022-10.6332 15.5994-10.63 16 0a8.0223 8.0223 0 0 1 -8 8.0261zm15-5.0261a3 3 0 1 1 0-6 3 3 0 0 1 0 6z" fill="#000000" style="fill: rgb(215, 23, 42);"></path><path d="m32.5121 36.0505v1.2h-1.0156v-1.2a2.8643 2.8643 0 0 1 -2.7866-2.209l1.7456-.4a1.4875 1.4875 0 0 0 1.6377 1.1236c.8922.112 1.7655-.75 1.0029-1.3965a3.3253 3.3253 0 0 0 -1.1172-.3609 4.2129 4.2129 0 0 1 -2.3267-1.0039 2.5042 2.5042 0 0 1 1.8443-3.999v-1.0028h1.0156v.99a2.7525 2.7525 0 0 1 2.5645 1.8726l-1.6.5332a1.3193 1.3193 0 0 0 -1.3766-.952c-1.6076-.0287-1.4028 1.4659.0381 1.5616a9.42 9.42 0 0 1 1.8056.5019c2.4722 1.1966 1.2725 4.724-1.4316 4.7412z" fill="#000000" style="fill: rgb(215, 23, 42);"></path></g></svg>