<svg width="38" height="61" viewBox="0 0 38 61" fill="none" xmlns="http://www.w3.org/2000/svg">
<g clip-path="url(#clip0_120_115)">
<path d="M30.1361 46.3402C25.6192 46.0994 21.3891 46.8217 16.5854 47.4638C15.2948 47.4638 14.578 47.5442 16.2269 46.3402C23.9703 41.2836 29.9211 40.0796 34.0077 33.7389C38.6681 26.2746 40.102 15.5998 34.7247 7.49333C32.0003 3.56051 26.9814 0.510673 21.604 0.1895C18.7363 0.0290142 15.9401 0.269843 13.2874 1.07247C8.05353 2.59739 4.39686 6.04875 2.03097 10.8643C-0.836959 16.8841 -2.12756 27.8799 5.97418 30.2878C14.9364 32.214 20.0269 23.3853 13.861 15.3592C11.8534 12.7104 15.1514 10.1421 18.3778 9.98156C23.3247 9.74074 26.2644 15.5196 25.691 20.8169C25.3325 23.7062 23.6118 26.9971 21.5326 29.0035C17.3023 32.6957 12.2837 35.1036 7.5515 38.6351C5.18561 40.3205 3.60829 42.5679 2.67618 45.3771C1.09885 50.1125 -0.836959 58.1387 4.68376 60.3057C5.97418 60.707 8.84211 60.4662 10.1327 60.5465C17.3741 60.5465 24.7587 61.1887 32.9322 60.6267C35.8001 60.3861 36.8756 57.657 37.2341 53.8045C37.3059 52.7611 37.3776 51.798 37.1623 50.9152C36.4453 47.6243 33.2189 46.4204 30.1361 46.3402ZM34.0382 13.5611C34.2264 13.4888 34.4294 13.6017 34.4933 13.8112C34.8772 15.0704 35.1266 16.4033 35.2346 17.773C35.2519 17.9938 35.1063 18.1886 34.909 18.208C34.8983 18.209 34.8877 18.2096 34.8772 18.2096C34.6934 18.2096 34.5369 18.0524 34.5204 17.8435C34.4175 16.5381 34.1802 15.2687 33.8148 14.0706C33.7508 13.8608 33.8509 13.6327 34.0382 13.5611ZM33.6941 25.4995C34.0538 24.244 34.3076 22.9693 34.4483 21.7113C34.473 21.4912 34.6514 21.3331 34.8485 21.3628C35.045 21.3903 35.1844 21.5909 35.1597 21.8108C35.0136 23.1182 34.7501 24.4419 34.3767 25.7448C34.3279 25.915 34.1872 26.0236 34.0354 26.0236C33.9992 26.0236 33.9623 26.0173 33.9258 26.0042C33.7373 25.9367 33.6335 25.7105 33.6941 25.4995ZM2.72647 19.4116C2.81258 18.1433 3.05449 16.7709 3.42614 15.4429C3.48515 15.2313 3.68662 15.1131 3.87529 15.1799C4.06418 15.2461 4.16936 15.4713 4.11021 15.6827C3.7547 16.9535 3.52347 18.264 3.44138 19.4723C3.42704 19.6829 3.27002 19.8432 3.08428 19.8432C3.07518 19.8432 3.06607 19.8428 3.05679 19.8421C2.85933 19.8252 2.71142 19.6326 2.72647 19.4116ZM5.9473 26.4899C5.88445 26.6306 5.75791 26.7119 5.62627 26.7119C5.57253 26.7119 5.51793 26.6983 5.46645 26.6695C4.45261 26.1026 3.7377 25.2557 3.28049 24.0804C3.2066 23.8905 3.1387 23.6902 3.07865 23.4854C3.01685 23.2748 3.11945 23.0481 3.30744 22.9789C3.49597 22.9107 3.69831 23.0248 3.75993 23.235C3.81295 23.4163 3.873 23.5928 3.93796 23.7598C4.3304 24.7691 4.91803 25.4656 5.78676 25.9515C5.96389 26.0505 6.03584 26.2916 5.9473 26.4899ZM7.60005 9.09414C6.82338 9.98004 6.11776 11.01 5.50266 12.1551C5.43544 12.2803 5.31675 12.3497 5.19511 12.3497C5.13227 12.3497 5.06856 12.3313 5.01078 12.2923C4.84099 12.178 4.78618 11.9316 4.88824 11.7417C5.53224 10.5426 6.2723 9.4627 7.08819 8.53209C7.22682 8.37357 7.45385 8.37141 7.59513 8.52659C7.73659 8.68206 7.73867 8.93602 7.60005 9.09414ZM4.89211 56.4041C4.83121 56.4494 4.76241 56.4709 4.6943 56.4709C4.57808 56.4709 4.46411 56.4079 4.39514 56.2914C4.33771 56.1944 4.28555 56.0892 4.23568 55.9701C4.07762 55.5929 3.88927 54.9029 3.88927 53.7583C3.88927 53.2649 3.92462 52.7221 3.99463 52.145C4.02105 51.9252 4.20242 51.7708 4.39794 51.8014C4.59417 51.8309 4.73158 52.0332 4.70495 52.2528C4.63949 52.7943 4.60622 53.3008 4.60622 53.7584C4.60622 54.8077 4.78073 55.3811 4.88473 55.6295C4.91448 55.7005 4.94897 55.774 4.99274 55.8478C5.10215 56.0326 5.05702 56.2816 4.89211 56.4041ZM6.84263 44.9245C6.52597 45.4892 6.26201 46.0957 6.03531 46.7788C5.841 47.3628 5.6642 47.9326 5.50983 48.473C5.461 48.6435 5.32008 48.7523 5.16851 48.7523C5.13227 48.7523 5.09534 48.746 5.0591 48.7331C4.87057 48.6654 4.76661 48.4395 4.82683 48.2285C4.98471 47.6763 5.16518 47.0943 5.36335 46.499C5.6072 45.7643 5.89234 45.1095 6.23523 44.4977C6.3406 44.3102 6.56186 44.2539 6.72956 44.3711C6.89726 44.4889 6.94784 44.7368 6.84263 44.9245ZM32.9839 29.457C32.5888 30.2985 32.1472 31.1126 31.6714 31.8769C31.4561 32.2098 31.2319 32.5298 31.0014 32.8337C30.9305 32.9274 30.8295 32.9754 30.728 32.9754C30.646 32.9754 30.5636 32.9441 30.4962 32.88C30.3451 32.7365 30.3267 32.4833 30.4549 32.3144C30.6735 32.026 30.8862 31.7224 31.087 31.4121C31.5421 30.681 31.968 29.8956 32.3492 29.0836C32.4416 28.8876 32.6584 28.8118 32.8334 28.915C33.0086 29.0181 33.076 29.2609 32.9839 29.457ZM29.9313 7.24608C30.0549 7.07247 30.2807 7.04542 30.4351 7.18335C31.2051 7.87293 31.8787 8.62893 32.4374 9.43056C32.6028 9.68118 32.7555 9.92614 32.9008 10.1732C33.0096 10.3584 32.9638 10.6073 32.7984 10.7292C32.7377 10.7738 32.6692 10.7952 32.6016 10.7952C32.4851 10.7952 32.3708 10.7317 32.3018 10.6146C32.1635 10.3792 32.0186 10.1464 31.8665 9.91599C31.3478 9.17195 30.7136 8.46062 29.9874 7.81005C29.8326 7.67171 29.8076 7.41912 29.9313 7.24608ZM28.7787 16.7897C28.9728 16.7568 29.1574 16.9061 29.1876 17.1251C29.2942 17.8994 29.3482 18.6883 29.3482 19.4696C29.3482 20.0407 29.3193 20.6165 29.2624 21.1804C29.2418 21.3854 29.0867 21.5367 28.9068 21.5367C28.8933 21.5367 28.8796 21.5359 28.866 21.5342C28.6692 21.5093 28.5278 21.3106 28.55 21.0903C28.6039 20.5561 28.6313 20.0108 28.6313 19.4696C28.6313 18.729 28.58 17.9813 28.479 17.2474C28.4489 17.0283 28.583 16.8234 28.7787 16.7897ZM28.3086 25.099C27.8546 26.3255 27.272 27.5178 26.5775 28.643C26.5078 28.7557 26.396 28.8162 26.2822 28.8162C26.212 28.8162 26.1409 28.7931 26.0788 28.7451C25.9158 28.6191 25.875 28.3691 25.9876 28.1869C26.6534 27.1081 27.2117 25.9659 27.6463 24.7917C27.7219 24.5868 27.9318 24.4898 28.1147 24.5746C28.2976 24.6594 28.3844 24.8942 28.3086 25.099ZM9.94092 6.03567C10.9438 5.3745 12.0581 4.83092 13.2529 4.41961C13.4415 4.35516 13.6426 4.4733 13.7011 4.68532C13.7592 4.89713 13.6529 5.12171 13.4637 5.18696C12.322 5.57965 11.2594 6.09795 10.3047 6.72738C10.2476 6.76502 10.1849 6.78284 10.1232 6.78284C10.0003 6.78284 9.88073 6.71229 9.81387 6.58511C9.71335 6.39428 9.77024 6.14816 9.94092 6.03567ZM10.1294 11.2381C10.1872 11.0903 10.249 10.9459 10.315 10.8046C10.4067 10.6085 10.6233 10.5329 10.7988 10.6349C10.9742 10.7376 11.0421 10.9802 10.9504 11.1765C10.8921 11.3013 10.8374 11.4289 10.7864 11.5592C10.5134 12.2602 10.3747 12.986 10.3747 13.7165C10.3747 14.0616 10.4061 14.4094 10.468 14.7502C10.5074 14.9673 10.3821 15.1793 10.1881 15.2234C10.164 15.2289 10.14 15.2314 10.1164 15.2314C9.94938 15.2314 9.79989 15.1003 9.7654 14.91C9.69399 14.5168 9.65775 14.115 9.65775 13.7165C9.65767 12.8749 9.81645 12.0411 10.1294 11.2381ZM12.5389 25.726C11.7145 26.6251 10.5286 27.1732 9.10929 27.3111C9.09879 27.3123 9.08828 27.3127 9.07796 27.3127C8.89398 27.3127 8.73732 27.1551 8.72122 26.946C8.70405 26.7252 8.85007 26.5308 9.04734 26.5116C10.2998 26.3897 11.3341 25.9194 12.0387 25.1511C12.1803 24.9965 12.4075 24.9998 12.5456 25.1586C12.6837 25.3173 12.6807 25.5714 12.5389 25.726ZM13.6487 21.742C13.6795 21.9609 13.5458 22.1663 13.3503 22.2008C13.3314 22.2041 13.3126 22.2057 13.2941 22.2057C13.1208 22.2057 12.9683 22.0646 12.9405 21.8667C12.7908 20.8009 12.3004 19.6363 11.5221 18.4988C11.4017 18.3228 11.4317 18.071 11.5888 17.9362C11.7453 17.8018 11.9709 17.8347 12.0914 18.0108C12.9541 19.272 13.4782 20.5273 13.6487 21.742ZM16.3827 7.05758C15.2264 7.34917 14.1379 7.84472 13.2351 8.491C13.1752 8.5337 13.1083 8.55408 13.0423 8.55408C12.924 8.55408 12.8083 8.48863 12.7398 8.36892C12.6332 8.18219 12.6821 7.93409 12.8489 7.81458C13.8211 7.11894 14.9886 6.58635 16.2251 6.27457C16.4179 6.22637 16.6101 6.36178 16.6537 6.57793C16.6972 6.79408 16.5758 7.00878 16.3827 7.05758ZM16.8589 4.36985C16.8433 4.37221 16.8279 4.37318 16.8126 4.37318C16.635 4.37318 16.4808 4.22541 16.4577 4.02299C16.4325 3.80311 16.5711 3.60209 16.7675 3.57388C17.9044 3.41066 19.0977 3.33734 20.3484 3.35616C20.5464 3.35909 20.7046 3.54133 20.702 3.76298C20.6993 3.98462 20.5215 4.15743 20.3386 4.15879C19.1246 4.14138 17.9625 4.21133 16.8589 4.36985ZM23.4897 7.81474C23.4249 7.94934 23.3013 8.02599 23.1736 8.02599C23.1163 8.02599 23.0582 8.0107 23.0041 7.9782C21.9974 7.37229 20.912 6.98823 19.7779 6.83693C19.5811 6.81069 19.4409 6.61099 19.4642 6.39095C19.4876 6.17071 19.6658 6.01472 19.8626 6.0398C21.0863 6.20322 22.2575 6.61749 23.3437 7.2712C23.518 7.37622 23.5833 7.61958 23.4897 7.81474ZM23.5063 4.07869C23.5485 3.86214 23.7389 3.72441 23.9329 3.77201C25.1095 4.05887 26.261 4.49293 27.3552 5.06236C27.5348 5.15582 27.6127 5.39449 27.5292 5.59534C27.4685 5.7417 27.3391 5.82755 27.204 5.82755C27.1534 5.82755 27.1019 5.81559 27.0531 5.7901C26.0067 5.24576 24.9056 4.83052 23.7803 4.55618C23.5868 4.50898 23.4641 4.2952 23.5063 4.07869ZM25.6611 10.3494C25.5326 10.1872 25.5414 9.9381 25.6825 9.78937C25.8236 9.64105 26.0434 9.64281 26.1803 9.79624C26.188 9.80486 26.198 9.81703 26.2048 9.82642C26.9875 10.8146 27.6477 11.9641 28.1603 13.2339C28.2418 13.4357 28.1617 13.6734 27.9812 13.7647C27.9334 13.789 27.8832 13.8006 27.8338 13.8006C27.6973 13.8006 27.5669 13.7126 27.507 13.5643C27.024 12.3682 26.4029 11.2867 25.6611 10.3494ZM24.9221 36.9105C26.1388 36.1998 27.0884 35.5624 27.9106 34.9048C28.0714 34.7758 28.2957 34.8176 28.4107 34.9978C28.5259 35.1783 28.4886 35.4289 28.3275 35.5577C27.4775 36.2376 26.5008 36.8937 25.2539 37.6222C25.2009 37.6532 25.1442 37.6677 25.0884 37.6677C24.959 37.6677 24.8342 37.5893 24.7701 37.4522C24.6786 37.2556 24.7467 37.0132 24.9221 36.9105ZM20.9365 33.4325C21.7941 32.7931 22.566 32.1726 23.2961 31.5355C23.3336 31.5028 23.37 31.4694 23.4055 31.4349C23.5147 31.3295 23.6234 31.2214 23.7309 31.1108C23.8772 30.9608 24.1037 30.9723 24.2375 31.1351C24.3714 31.2985 24.3616 31.5523 24.2158 31.7022C24.1027 31.8182 23.9888 31.9319 23.8736 32.0432C23.8286 32.0863 23.7831 32.1282 23.7367 32.1686C22.9926 32.818 22.2066 33.45 21.3339 34.1007C21.2728 34.1462 21.2038 34.1679 21.1356 34.1679C21.0197 34.1679 20.9059 34.1052 20.8368 33.989C20.727 33.8046 20.7716 33.5554 20.9365 33.4325ZM21.5798 38.7445L21.7424 38.6579L21.9124 39.0117L22.0503 39.3827L21.8929 39.4664C20.9291 39.9802 19.9379 40.5085 18.8874 41.0959C18.8359 41.1247 18.7813 41.1382 18.7276 41.1382C18.596 41.1382 18.4694 41.0569 18.4066 40.9162C18.318 40.7179 18.3899 40.4769 18.5671 40.3779C19.6235 39.7872 20.6179 39.2571 21.5798 38.7445ZM14.881 37.4696L15.0321 37.3748C15.9954 36.7679 16.9796 36.1481 17.949 35.5111C18.1201 35.3988 18.3396 35.4629 18.4397 35.6539C18.54 35.8452 18.4827 36.0911 18.3121 36.2032C17.3369 36.844 16.3498 37.4658 15.3951 38.0671L15.2329 38.1692C15.1772 38.2041 15.1168 38.2208 15.0573 38.2208C14.932 38.2208 14.8103 38.1473 14.7445 38.0164C14.6473 37.8231 14.7086 37.5784 14.881 37.4696ZM12.4953 44.6852C13.0874 43.8416 13.8556 43.2806 14.2684 42.9792C14.3179 42.9426 14.3692 42.9073 14.4212 42.8734C14.758 42.6535 15.092 42.4402 15.4226 42.2332C15.5954 42.1253 15.8137 42.1944 15.9105 42.3879C16.0071 42.5813 15.9453 42.8258 15.7723 42.934C15.4455 43.1386 15.1154 43.3492 14.7819 43.5671C14.7406 43.5939 14.7005 43.6217 14.6612 43.6506C14.2818 43.9274 13.578 44.4416 13.059 45.181C12.9883 45.2817 12.8833 45.3344 12.777 45.3344C12.6995 45.3344 12.6214 45.3064 12.5557 45.2486C12.3999 45.1118 12.373 44.8594 12.4953 44.6852ZM8.78966 41.5662C8.88821 41.4912 8.98852 41.4171 9.0909 41.344L9.1436 41.3056C9.93289 40.7166 10.8036 40.1074 11.8041 39.4437C11.9748 39.3304 12.1943 39.3937 12.2953 39.5844C12.3963 39.7751 12.3399 40.0212 12.1696 40.1342C11.18 40.7905 10.3199 41.3925 9.54005 41.9744L9.47635 42.0209C9.3806 42.0892 9.28624 42.1586 9.194 42.2293C9.13202 42.2766 9.06168 42.2991 8.99217 42.2991C8.87771 42.2991 8.76514 42.238 8.69566 42.1241C8.58414 41.9409 8.62615 41.6913 8.78966 41.5662ZM11.5182 57.3433C11.5172 57.3433 11.5161 57.3433 11.5149 57.3433C11.0801 57.3388 10.6463 57.3363 10.2143 57.3361C9.9677 57.3237 9.70127 57.3182 9.36991 57.3182C9.08441 57.3182 8.77145 57.3224 8.44411 57.3267L7.98374 57.3325C7.98252 57.3325 7.9813 57.3325 7.98005 57.3325C7.78363 57.3325 7.62349 57.1556 7.62155 56.9353C7.61962 56.7137 7.77839 56.5323 7.97635 56.5299L8.43569 56.524C8.76618 56.5197 9.08194 56.5156 9.36991 56.5156C9.71457 56.5156 9.9915 56.5215 10.2311 56.5338C10.647 56.535 11.0845 56.5362 11.5215 56.5407C11.7195 56.5429 11.8785 56.7241 11.8767 56.9457C11.875 57.166 11.7148 57.3433 11.5182 57.3433ZM11.9457 48.8054C11.8743 48.5987 11.9662 48.3663 12.1509 48.2865C12.335 48.2069 12.5431 48.3092 12.6144 48.5161C13.0048 49.6468 13.7895 50.3181 15.013 50.5686C15.2079 50.6086 15.3368 50.8177 15.3013 51.0356C15.2696 51.2292 15.1187 51.3648 14.949 51.3648C14.9276 51.3648 14.9059 51.3626 14.8842 51.3583C13.4152 51.0575 12.4265 50.1986 11.9457 48.8054ZM18.5939 57.5148C18.5907 57.5148 18.5874 57.5148 18.5842 57.5146L17.6523 57.4868C16.7921 57.4609 15.9222 57.4349 15.048 57.4116C14.8501 57.4065 14.6934 57.2225 14.6981 57.001C14.7026 56.7826 14.8623 56.6091 15.0562 56.6091C15.0592 56.6091 15.062 56.6091 15.0648 56.6093C15.9398 56.6324 16.8107 56.6585 17.6716 56.6846L18.6031 56.7124C18.8011 56.7182 18.9572 56.9024 18.952 57.1241C18.947 57.342 18.7875 57.5148 18.5939 57.5148ZM18.5125 51.2443C18.4976 51.2462 18.4829 51.2472 18.4682 51.2472C18.2898 51.2472 18.1353 51.0983 18.1129 50.8949C18.0887 50.675 18.2284 50.4747 18.425 50.4475L18.8836 50.3842C19.92 50.2408 20.9381 50.1003 21.9423 49.9749C22.1371 49.9498 22.3164 50.1089 22.3382 50.3292C22.3603 50.5494 22.2185 50.7479 22.0218 50.7724C21.0203 50.8976 20.0051 51.0379 18.9716 51.1808L18.5125 51.2443ZM25.763 57.6469H25.6695C24.5795 57.6469 23.4198 57.634 22.1245 57.6073C21.9265 57.6032 21.7692 57.4202 21.7727 57.1985C21.7765 56.9769 21.9488 56.8058 22.1378 56.8047C23.4286 56.8313 24.5839 56.8442 25.6695 56.8442H25.763C25.961 56.8442 26.1215 57.024 26.1215 57.2456C26.1215 57.4672 25.961 57.6469 25.763 57.6469ZM25.5284 50.414C25.5205 50.4146 25.5127 50.4148 25.505 50.4148C25.3175 50.4148 25.16 50.2517 25.1475 50.0393C25.1348 49.8183 25.2846 49.6272 25.4822 49.6129C26.7752 49.5193 27.9222 49.4864 29.0485 49.5115C29.2463 49.5159 29.4037 49.6992 29.3999 49.9208C29.3958 50.1424 29.2306 50.3219 29.0342 50.3141C27.9279 50.2888 26.8012 50.3217 25.5284 50.414ZM32.8875 57.4049C32.8428 57.4124 32.7937 57.4184 32.7387 57.4235C31.6158 57.5005 30.4971 57.5556 29.311 57.5926C29.3077 57.5928 29.3042 57.5928 29.3008 57.5928C29.1074 57.5928 28.9481 57.4204 28.9427 57.2027C28.9371 56.9812 29.0931 56.7965 29.2911 56.7904C30.4691 56.7536 31.5799 56.6987 32.6873 56.623C32.7174 56.6201 32.7515 56.616 32.7825 56.6109C32.9794 56.5789 33.1607 56.73 33.1896 56.9491C33.2186 57.1684 33.0833 57.3723 32.8875 57.4049ZM34.3788 53.497C34.3643 53.7072 34.2073 53.8695 34.0214 53.8695C34.0137 53.8695 34.006 53.8693 33.9981 53.8687C33.8022 53.8544 33.6529 53.6686 33.6632 53.4491C33.6909 53.0439 33.7215 52.6006 33.7215 52.276C33.7215 52.0549 33.707 51.9844 33.704 51.9724L33.6797 51.8666C33.5586 51.3107 32.9305 50.9643 32.425 50.7714C32.2377 50.6999 32.1375 50.4718 32.2015 50.262C32.2652 50.0523 32.4689 49.9396 32.6564 50.0117C33.6384 50.3864 34.2171 50.9462 34.3762 51.6758L34.3958 51.7614C34.4249 51.8806 34.4385 52.0442 34.4385 52.276C34.4385 52.6316 34.4069 53.0913 34.3788 53.497Z" fill="#D7172A"/>
</g>
<defs>
<clipPath id="clip0_120_115">
<rect width="38" height="61" fill="white"/>
</clipPath>
</defs>
</svg>
