<svg width="96" height="70" viewBox="0 0 96 70" fill="none" xmlns="http://www.w3.org/2000/svg">
<path d="M75.0309 41.8181L76.1193 43.2794L74.0284 46.5521L77.5739 44.9157L78.7557 46.2794L74.2321 50.2231L73.5739 49.4612L77.0284 46.3703L72.6648 48.3703L71.9375 47.643L74.6648 43.643L71.2102 46.5521L70.4188 45.7502L75.0309 41.8181Z" fill="black"/>
<path d="M76.6648 53.0977L76.1193 52.1886L82.1193 50.0068L83.0284 51.0977L79.9375 56.734L79.2102 56.1886L81.392 51.5522L81.3563 51.5149L76.6648 53.0977ZM78.7557 51.8249L80.8466 54.1886L80.1193 54.8249L77.9375 52.3704L78.7557 51.8249Z" fill="black"/>
<path d="M81.6276 59.1459L86.3916 54.8269L88.0762 56.6851C88.4657 57.1147 88.7218 57.525 88.8446 57.916C88.9689 58.3055 88.981 58.6664 88.8809 58.9985C88.7808 59.3306 88.5904 59.6239 88.3097 59.8784C88.029 60.1328 87.72 60.2922 87.3828 60.3566C87.0456 60.421 86.6909 60.3724 86.3185 60.211C85.9477 60.0482 85.5691 59.7537 85.1829 59.3277L83.8196 57.824L84.7557 57.1885L86.0994 58.6707C86.0994 58.6707 86.0284 58.643 86.4829 59.0067C86.7213 59.12 86.9375 59.0976 86.9375 59.0976C86.9375 59.0976 87.3241 59.0746 87.4829 58.9157C87.6648 58.7339 87.7782 58.55 87.7557 58.2794C87.727 57.9354 87.2102 57.3703 87.2102 57.3703L86.3185 56.5521L85.2102 57.5521L82.392 59.8784L81.6276 59.1459ZM85.9375 59.643L85.3011 63.0067L84.4829 62.1885L84.9375 58.6462L85.9375 59.643Z" fill="black"/>
<path d="M87.2514 65.1435L91.8877 61.1435L92.615 62.0526L90.2513 64.0526L94.2514 64.0526L95.1605 65.1435L92.0695 65.1435L90.7059 69.1436L89.8877 68.0526L90.7968 64.9617L89.2513 64.9617L87.9786 66.0526L87.2514 65.1435Z" fill="black"/>
<path d="M33.1816 69.8184H30.1816L30.3125 67.9951H33.1816V69.8184ZM33.1816 66.5371H30.417L30.5869 64.167H33.1816V66.5371ZM33.1816 62.8916H30.6787L30.8613 60.3389H33.1816V62.8916ZM33.1816 59.0635H30.9531L31.123 56.6934H33.1816V59.0635ZM33.1816 55.2354H31.2529C31.2694 54.3437 30.9307 53.2994 29.7324 52.8652H33.1816V55.2354ZM26.7275 52.8652C22.4366 53.8132 16.4545 54.8701 14.0908 55.1436C14.0692 54.6653 14.3757 53.8632 14.8721 52.8652H26.7275ZM33.1816 51.4072H15.6406C16.1475 50.4286 16.2552 49.6534 16.1094 49.0371H33.1816V51.4072ZM33.1816 47.7607H15.2061L12.1865 45.209H33.1816V47.7607ZM33.1816 43.9326H10.6768L7.65723 41.3809H33.1816V43.9326ZM33.1816 40.1045H6.14746L3.12793 37.5527H33.1816V40.1045ZM33.1816 36.2764H1.61719L0 34.9092L2.6123 33.7246H33.1816V36.2764ZM33.1816 32.4482H3.93945C3.97416 31.8665 3.92268 31.0287 3.70996 29.8965H33.1816V32.4482ZM20.7275 26.8887C20.7296 27.1539 22.7757 27.9034 22.9033 26.4023L22.9092 26.25H33.1816V28.6201H3.42773C3.25327 27.9166 3.02705 27.1286 2.73926 26.25H20.1172L20.7275 26.8887ZM8 23.6074C8.90907 23.6986 9.43628 23.9714 10.0908 23.2422C10.2435 23.072 10.4251 22.7827 10.6211 22.4219H16.46L18.7246 24.792H2.23535C1.96669 24.0559 1.65994 23.2666 1.30957 22.4219H1.75098L8 23.6074ZM33.1816 24.792H22.6963C22.5735 24.1469 22.4022 23.3396 22.2021 22.4219H33.1816V24.792ZM15.0664 20.9639H11.3301C11.7002 20.1381 12.0572 19.258 12.3145 18.5938H12.8018L15.0664 20.9639ZM33.1816 20.9639H21.8838C21.7165 20.2125 21.5374 19.4153 21.3535 18.5938H33.1816V20.9639ZM33.1816 17.3184H21.0713C20.8835 16.4737 20.6931 15.6158 20.5098 14.7656H33.1816V17.3184ZM33.1816 13.4902H20.2383C20.0534 12.6099 19.8797 11.7505 19.7236 10.9375H33.1816V13.4902ZM19.1963 7.75781C20.0489 8.36703 21.0812 9.10314 22.1699 9.66211H19.4883C19.3652 8.96626 19.2593 8.32132 19.1816 7.74707L19.1963 7.75781ZM33.1816 9.66211H27.4043C27.8501 9.27377 28.2656 8.73711 28.6367 8.02051L29.1533 7.10938H33.1816V9.66211ZM33.1816 5.83398H29.876L31.3223 3.28125H33.1816V5.83398ZM33.1816 2.00488H32.0459L33.1816 0V2.00488Z" fill="#D7172A"/>
<path d="M33.0909 0H64.7273C69.7576 0 81.9091 3.9091 81.9091 18.091C81.9091 24.1819 78.3637 33.3637 68.8182 35.2728H56.7273V48.3638L36.5455 24.7273L64.7273 24.8182C66.6364 24.8182 70.4546 22.5492 70.4546 18.091C70.4546 13.7273 66.6364 11.6364 64.7273 11.6364L33.0909 11.4546V0Z" fill="black"/>
<path d="M33.0909 35.0908H42.9091L57.8182 52.3296V36.875H67.9809L68 70H57.8182L43.0909 52.909V70H33.0909V35.0908Z" fill="black"/>
<path d="M69.6364 46.3638V63.6365L75.091 70.0002L89.8183 70.0002L69.6364 46.3638Z" fill="black"/>
</svg>
