<!-- icon666.com - MILLIONS OF FREE VECTOR ICONS --><svg fill="none" viewBox="0 0 24 24" xmlns="http://www.w3.org/2000/svg"><path clip-rule="evenodd" d="m6.03497 10.3967c0-2.40893 1.9528-4.36173 4.36173-4.36173 2.4089 0 4.3617 1.9528 4.3617 4.36173 0 2.4089-1.9528 4.3617-4.3617 4.3617-2.40893 0-4.36173-1.9528-4.36173-4.3617zm4.36173-6.86173c-3.78964 0-6.86173 3.07209-6.86173 6.86173 0 3.7896 3.07209 6.8617 6.86173 6.8617 1.4432 0 2.7823-.4456 3.8873-1.2066l4.0472 4.0471c.4881.4882 1.2796.4882 1.7677 0 .4882-.4881.4882-1.2796 0-1.7677l-4.0471-4.0472c.761-1.105 1.2066-2.4441 1.2066-3.8873 0-3.78964-3.0721-6.86173-6.8617-6.86173z" fill="rgb(0,0,0)" fill-rule="evenodd"></path></svg>