<svg width="44" height="44" viewBox="0 0 44 44" fill="none" xmlns="http://www.w3.org/2000/svg">
<rect x="0.5" y="0.5" width="43" height="43" rx="21.5" stroke="black"/>
<path d="M32.8 30.4H11.2C10.5376 30.4 10 30.9376 10 31.6C10 32.2624 10.5376 32.8 11.2 32.8H32.8C33.4624 32.8 34 32.2624 34 31.5999C34 30.9376 33.4624 30.4 32.8 30.4ZM11.2 13.6H32.8C33.4624 13.6 34 13.0624 34 12.4C34 11.7375 33.4624 11.2 32.8 11.2H11.2C10.5376 11.2 10 11.7376 10 12.4C10 13.0624 10.5376 13.6 11.2 13.6ZM32.8 20.8H11.2C10.5376 20.8 10 21.3376 10 22C10 22.6624 10.5376 23.2 11.2 23.2H32.8C33.4624 23.2 34 22.6624 34 22C34 21.3376 33.4624 20.8 32.8 20.8Z" fill="black"/>
</svg>
