<!-- icon666.com - MILLIONS OF FREE VECTOR ICONS --><svg viewBox="-21 -21 682.66664 682" xmlns="http://www.w3.org/2000/svg"><path d="m634.144531 495.101562-73.964843-70.085937c-8.511719 7.597656-18.632813 13.589844-30.375 16.742187l-21.273438 5.699219-5.714844 21.257813c-10 37.207031-48.03125 61.523437-86.042968 54.875l-28.746094-1.371094 107.175781 111.976562c5.429687 5.671876 13.667969 7.214844 20.527344 4.429688 7.121093-2.839844 11.773437-9.742188 11.773437-17.394531v-93.753907h93.753906c7.671876 0 14.578126-4.6875 17.414063-11.808593 2.835937-7.140625 1.039063-15.273438-4.527344-20.566407zm0 0"></path><path d="m137.183594 468.710938-5.714844-21.257813-21.238281-5.695313c-11.753907-3.152343-21.886719-9.148437-30.40625-16.753906l-73.96875 70.097656c-5.566407 5.292969-7.363281 13.425782-4.527344 20.566407 2.84375 7.121093 9.742187 11.808593 17.417969 11.808593h93.75v93.753907c0 7.652343 4.652344 14.554687 11.777344 17.394531 6.859374 2.785156 15.097656 1.242188 20.523437-4.429688l107.121094-111.925781c-23.925781 1.21875-41.765625 2.457031-41.765625 2.457031-34.09375 0-64.105469-23.035156-72.96875-56.015624zm0 0"></path><path d="m320 132.472656c-72.363281 0-131.25 58.886719-131.25 131.25 0 72.367188 58.886719 131.253906 131.25 131.253906 72.367188 0 131.253906-58.886718 131.253906-131.253906 0-72.363281-58.890625-131.25-131.253906-131.25zm37.5 206.253906h-75c-10.367188 0-18.75-8.390624-18.75-18.753906 0-10.363281 8.382812-18.75 18.75-18.75h18.75v-48.488281l-5.492188 5.492187c-7.324218 7.324219-19.191406 7.324219-26.515624 0-7.324219-7.324218-7.324219-19.1875 0-26.511718l37.5-37.5c5.367187-5.347656 13.425781-6.996094 20.433593-4.066406 7.011719 2.894531 11.574219 9.746093 11.574219 17.324218v93.75h18.75c10.367188 0 18.75 8.386719 18.75 18.75 0 10.363282-8.382812 18.753906-18.75 18.753906zm0 0"></path><path d="m466.597656 458.988281 11.332032-42.167969 42.152343-11.277343c20.253907-5.441407 32.339844-26.367188 26.917969-46.65625l-11.332031-42.132813 30.890625-30.894531c14.847656-14.847656 14.847656-39.019531 0-53.867187l-30.875-30.871094 11.335937-42.15625c5.382813-20.285156-6.703125-41.199219-26.957031-46.632813l-42.113281-11.28125-11.351563-42.207031c-5.308594-19.761719-25.710937-32.429688-46.636718-26.898438l-42.171876 11.292969-30.890624-32.15625c-14.394532-14.316406-39.367188-14.355469-53.832032.039063l-30.835937 32.117187-42.265625-11.3125c-20.433594-5.421875-41.234375 7.15625-46.5625 26.914063l-11.351563 42.207031-42.113281 11.277344c-20.253906 5.441406-32.339844 26.355469-26.9375 46.695312l11.316406 42.101563-30.875 30.867187c-14.847656 14.851563-14.847656 39.023438 0 53.871094l30.894532 30.890625-11.332032 42.171875c-5.421875 20.25 6.664063 41.179687 26.933594 46.621094l42.132812 11.273437 11.332032 42.171875c5.253906 19.484375 24.960937 31.601563 44.371094 27.46875l53.558593-2.710937 21.769531 21.773437c14.878907 14.796875 38.835938 14.882813 53.835938-.039062l21.734375-21.734375 53.558594 2.710937c19.484375 3.972657 39.132812-7.984375 44.367187-27.46875zm-146.597656-26.511719c-93.054688 0-168.753906-75.699218-168.753906-168.753906 0-93.058594 75.699218-168.753906 168.753906-168.753906s168.753906 75.695312 168.753906 168.753906c0 93.054688-75.699218 168.753906-168.753906 168.753906zm0 0"></path></svg>