<svg width="25" height="61" viewBox="0 0 25 61" fill="none" xmlns="http://www.w3.org/2000/svg">
<g clip-path="url(#clip0_120_110)">
<path d="M25.0203 9.86215C25.0203 7.78265 24.6986 5.86326 23.7331 4.02373C20.9172 -1.09476 13.7569 -0.614818 8.60785 0.90468C6.67702 1.38463 5.38967 2.50423 4.74619 4.26371C3.86111 6.7429 3.45884 9.46226 0.321193 19.939C0.0797894 20.7388 -0.161614 21.4587 0.0797903 22.2585C0.482063 24.0978 2.17169 25.4574 4.26338 25.5375C4.98739 25.5375 5.71161 25.3776 6.59649 25.2975C6.59649 34.1749 6.51615 42.9723 6.35528 52.4895C6.35528 58.1679 9.25153 60.887 15.7682 61.127C21.0781 61.207 24.7791 58.6478 24.7791 53.2893C25.1008 43.2923 24.3768 33.2152 25.0203 9.86215ZM4.38918 17.5177C4.82247 16.0241 5.18882 14.7259 5.50291 13.5895C5.56184 13.3767 5.78144 13.2507 5.9975 13.3099C6.21159 13.3685 6.3375 13.5885 6.27877 13.8015C5.96391 14.9407 5.5968 16.2421 5.1623 17.7395C5.11142 17.9147 4.95055 18.0287 4.77596 18.0287C4.73903 18.0287 4.7015 18.0234 4.66421 18.0128C4.45085 17.9515 4.32771 17.7299 4.38918 17.5177ZM7.97093 21.9442C7.91043 22.1566 7.68886 22.2808 7.47417 22.2197C7.09547 22.1129 6.70104 22.0752 6.30488 22.1117C5.91106 22.1473 5.54474 22.1957 5.19549 22.2429C4.87436 22.2865 4.57088 22.3274 4.35165 22.3364C4.34613 22.3366 4.34046 22.3368 4.33495 22.3368C4.32316 22.3368 4.31138 22.3362 4.29959 22.3353C3.81698 22.2931 3.41117 22.0463 3.26563 21.7065C3.17862 21.5033 3.27367 21.2684 3.47795 21.1819C3.68242 21.0952 3.91872 21.1899 4.00573 21.3929C4.01772 21.4138 4.11889 21.5101 4.34533 21.5361C4.5274 21.5261 4.79965 21.4894 5.08704 21.4505C5.44727 21.4017 5.82537 21.3517 6.23199 21.315C6.72598 21.2711 7.22037 21.3168 7.69377 21.4503C7.90749 21.5105 8.03164 21.7317 7.97093 21.9442ZM8.42252 5.93416C8.14399 6.77145 7.88533 7.76117 7.49384 9.2596L7.34005 9.84851C7.2929 10.0283 7.1297 10.1475 6.95093 10.1475C6.91734 10.1475 6.88335 10.1434 6.84919 10.1346C6.6343 10.0788 6.50545 9.86047 6.56145 9.64665L6.71504 9.05893C7.11063 7.54511 7.37187 6.54519 7.65885 5.68311C7.7284 5.47301 7.95605 5.3584 8.167 5.42906C8.37791 5.49832 8.49244 5.72442 8.42252 5.93416ZM10.3964 53.3194C10.4079 53.5401 10.2373 53.7281 10.0155 53.7394C10.0084 53.7398 10.0013 53.74 9.99429 53.74C9.78176 53.74 9.604 53.5742 9.59298 53.3608C9.57882 53.0892 9.57391 52.8085 9.57355 52.5193C9.59201 51.4145 9.60951 50.3263 9.6258 49.2463C9.62934 49.0255 9.82006 48.8658 10.0341 48.8525C10.2563 48.8558 10.4337 49.0376 10.4303 49.2584C10.4141 50.3388 10.3966 51.4273 10.3781 52.5253C10.3785 52.7936 10.383 53.0611 10.3964 53.3194ZM10.4877 45.1695C10.4848 45.3886 10.3052 45.5644 10.0856 45.5644C10.0839 45.5644 10.0821 45.5644 10.0803 45.5644C9.8582 45.5614 9.68043 45.3802 9.68316 45.1594C9.70082 43.785 9.71675 42.423 9.73071 41.0724C9.73309 40.8514 9.90868 40.6657 10.1371 40.6767C10.3593 40.679 10.5374 40.8598 10.5353 41.0807C10.5213 42.432 10.5054 43.7943 10.4877 45.1695ZM10.5728 36.9913C10.571 37.2112 10.3912 37.3881 10.1705 37.3881C10.1695 37.3881 10.1683 37.3881 10.1673 37.3881C9.94521 37.3863 9.76644 37.2059 9.76821 36.9851C9.77903 35.6136 9.78784 34.2519 9.79492 32.8981C9.79608 32.6781 9.97602 32.5004 10.1972 32.5004H10.1994C10.4215 32.5016 10.6007 32.6816 10.5995 32.9025C10.5924 34.2565 10.5835 35.6191 10.5728 36.9913ZM10.615 28.8133C10.6144 29.0338 10.4345 29.2123 10.2127 29.2123C10.2123 29.2123 10.2121 29.2123 10.2118 29.2123C9.98962 29.2117 9.80988 29.0322 9.81045 28.8114C9.81338 27.6358 9.81475 26.4648 9.81475 25.2975C9.81475 25.1288 9.80119 24.9582 9.77428 24.7906C9.73912 24.5725 9.88861 24.3675 10.108 24.3328C10.3274 24.2965 10.5337 24.4462 10.5686 24.6645C10.6022 24.8738 10.6193 25.0867 10.6193 25.2975C10.6193 26.4655 10.6179 27.6369 10.615 28.8133ZM11.3706 4.31293C11.1854 4.31293 11.0186 4.18505 10.9778 3.99758C10.9308 3.7818 11.0687 3.56898 11.2859 3.52211C12.678 3.22259 14.0015 3.07068 15.2195 3.07068C15.3002 3.07068 15.3795 3.07128 15.4575 3.07264C15.6797 3.07676 15.8565 3.2589 15.8525 3.47976C15.8484 3.70078 15.6532 3.87829 15.443 3.87241C14.2446 3.85134 12.8795 3.99758 11.456 4.30394C11.4274 4.30997 11.3989 4.31293 11.3706 4.31293ZM15.9064 57.9289C15.9054 57.9289 15.9044 57.9289 15.9035 57.9289L15.8514 57.9285C14.0027 57.8566 12.6403 57.5807 11.6735 57.0847C11.4761 56.9834 11.3985 56.7423 11.5005 56.546C11.6024 56.3496 11.845 56.2725 12.0424 56.374C12.9024 56.8151 14.1543 57.0621 15.8701 57.1291H15.9094C16.1315 57.1308 16.3103 57.311 16.3087 57.5319C16.3069 57.7518 16.1272 57.9289 15.9064 57.9289ZM19.0492 4.2278C19.1733 4.04465 19.423 3.99582 19.6076 4.11943C20.4127 4.65836 20.7478 5.26559 20.891 5.52472C21.2697 6.25419 21.5194 7.0247 21.6592 7.8897C21.6946 8.1078 21.5453 8.31282 21.3259 8.34797C21.3043 8.35149 21.2829 8.35305 21.2617 8.35305C21.0676 8.35305 20.8967 8.21325 20.8649 8.01662C20.7388 7.23656 20.5151 6.54439 20.181 5.90061C20.061 5.68367 19.8013 5.21348 19.1582 4.78296C18.9739 4.65952 18.925 4.41095 19.0492 4.2278ZM21.5321 32.4637C21.5331 32.6845 21.3537 32.8644 21.1316 32.8653C21.131 32.8653 21.1304 32.8653 21.1298 32.8653C20.9085 32.8653 20.7285 32.6875 20.7276 32.4672C20.7229 31.4354 20.7201 30.3658 20.7201 29.2538L20.7207 28.3779C20.7209 28.1573 20.901 27.9786 21.123 27.9786H21.1236C21.3457 27.9788 21.5254 28.1583 21.5252 28.3791L21.5246 29.2539C21.5247 30.3647 21.5274 31.4331 21.5321 32.4637ZM21.1546 36.1527H21.1582C21.3787 36.1527 21.5585 36.3294 21.5604 36.5491C21.5708 37.703 21.5826 38.8097 21.5938 39.8784L21.6019 40.6354C21.604 40.8563 21.4257 41.0371 21.2035 41.0392C21.2024 41.0392 21.2008 41.0392 21.1996 41.0392C20.9792 41.0392 20.7995 40.8629 20.7973 40.6433L20.7893 39.8868C20.7781 38.8178 20.7663 37.7107 20.7559 36.5561C20.7539 36.3353 20.9324 36.1546 21.1546 36.1527ZM21.5431 24.2945C21.5416 24.5143 21.3616 24.6914 21.1409 24.6914C21.1399 24.6914 21.1389 24.6914 21.1379 24.6914C20.9158 24.6897 20.737 24.5094 20.7386 24.2886C20.7484 22.9817 20.7626 21.6206 20.7818 20.1993C20.7847 19.9785 20.9725 19.8012 21.1896 19.8049C21.4117 19.8078 21.5893 19.9894 21.5863 20.2103C21.5671 21.6296 21.5529 22.9892 21.5431 24.2945ZM21.561 53.2893C21.561 54.1033 21.561 55.797 20.0682 56.8989C19.9961 56.9522 19.912 56.9778 19.8288 56.9778C19.7058 56.9778 19.5844 56.922 19.5055 56.8163C19.3729 56.639 19.4102 56.3885 19.5885 56.2569C20.7564 55.3948 20.7564 54.0768 20.7564 53.2894L20.7671 52.8881C20.7737 52.6673 20.9619 52.4902 21.1811 52.5003C21.4033 52.507 21.5779 52.6913 21.5712 52.9119L21.561 53.2893ZM21.6429 48.816C21.6415 49.036 21.4616 49.2133 21.2406 49.2133C21.2398 49.2133 21.2389 49.2133 21.2381 49.2133C21.016 49.212 20.837 49.0317 20.8383 48.8109C20.8419 48.2757 20.8435 47.7343 20.8435 47.1846C20.8437 46.3862 20.8403 45.5702 20.8348 44.7289C20.8334 44.508 21.0124 44.3278 21.2345 44.3265C21.4653 44.3116 21.638 44.503 21.6394 44.7238C21.6449 45.5667 21.6482 46.3847 21.648 47.1847C21.648 47.7362 21.6464 48.2792 21.6429 48.816ZM21.6541 16.1262C21.6498 16.3443 21.4705 16.5183 21.252 16.5183C21.2493 16.5183 21.2467 16.5183 21.244 16.5183C21.022 16.5141 20.8455 16.3315 20.8496 16.1107C20.8751 14.7969 20.9052 13.4352 20.9401 12.0227C20.9456 11.8019 21.1389 11.6215 21.352 11.6328C21.5741 11.6381 21.7498 11.8216 21.7443 12.0422C21.7093 13.4536 21.6796 14.8137 21.6541 16.1262Z" fill="#D7172A"/>
</g>
<defs>
<clipPath id="clip0_120_110">
<rect width="25" height="61" fill="white"/>
</clipPath>
</defs>
</svg>
