<!-- icon666.com - MILLIONS OF FREE VECTOR ICONS --><svg version="1.1" id="Capa_1" xmlns="http://www.w3.org/2000/svg" xmlns:xlink="http://www.w3.org/1999/xlink" x="0px" y="0px" viewBox="0 0 512 512" style="enable-background:new 0 0 512 512;" xml:space="preserve"><g><g><path d="M507,248.375l-120.499-69.569c-3.094-1.787-6.906-1.787-10,0l-120.499,69.569c-3.094,1.786-5,5.088-5,8.66v139.14 c0,3.572,1.906,6.874,5,8.66l120.499,69.569c1.547,0.894,3.273,1.34,5,1.34s3.453-0.446,5-1.34L507,404.835 c3.094-1.786,5-5.088,5-8.66v-139.14C512,253.463,510.094,250.161,507,248.375z M492,390.401l-110.499,63.796l-110.499-63.796 V262.809l110.499-63.796L492,262.809V390.401z" fill="#000000" style="fill: rgb(215, 23, 42);"></path></g></g><g><g><path d="M467,271.469l-80.499-46.476c-3.094-1.787-6.906-1.787-10,0l-80.499,46.476c-3.094,1.786-5,5.088-5,8.66v92.953 c0,3.572,1.906,6.874,5,8.66l80.499,46.476c1.547,0.894,3.273,1.34,5,1.34s3.453-0.447,5-1.341l48.095-27.768 c4.783-2.762,6.422-8.877,3.66-13.66c-2.761-4.781-8.877-6.421-13.66-3.66l-43.095,24.881l-70.499-40.702v-81.406l70.499-40.702 L452,285.903v48.357c0,5.522,4.477,10,10,10c5.522,0,10-4.478,10-10v-54.131C472,276.557,470.094,273.255,467,271.469z" fill="#000000" style="fill: rgb(215, 23, 42);"></path></g></g><g><g><path d="M471.808,371.13c-0.13-0.64-0.33-1.27-0.58-1.87c-0.25-0.61-0.56-1.19-0.92-1.73c-0.359-0.55-0.779-1.06-1.24-1.52 c-0.46-0.46-0.97-0.88-1.52-1.24c-0.54-0.359-1.12-0.67-1.73-0.92c-0.599-0.25-1.229-0.439-1.869-0.57c-1.29-0.26-2.62-0.26-3.9,0 c-0.64,0.131-1.269,0.32-1.87,0.57c-0.61,0.25-1.189,0.561-1.729,0.92c-0.551,0.36-1.061,0.78-1.521,1.24 c-0.46,0.46-0.88,0.97-1.24,1.52c-0.359,0.54-0.67,1.12-0.92,1.73c-0.25,0.599-0.45,1.23-0.58,1.87 c-0.129,0.639-0.189,1.3-0.189,1.95c0,2.63,1.07,5.21,2.93,7.069c0.46,0.46,0.97,0.88,1.521,1.25c0.54,0.36,1.119,0.67,1.729,0.92 c0.6,0.24,1.23,0.44,1.87,0.57c0.639,0.129,1.3,0.19,1.95,0.19c0.649,0,1.31-0.06,1.948-0.19c0.639-0.13,1.269-0.33,1.869-0.57 c0.61-0.25,1.19-0.56,1.73-0.92c0.55-0.37,1.06-0.79,1.52-1.25c1.861-1.859,2.931-4.439,2.931-7.069 C471.998,372.43,471.938,371.771,471.808,371.13z" fill="#000000" style="fill: rgb(215, 23, 42);"></path></g></g><g><g><path d="M328.795,122.778l-47.066-81.521c-1.786-3.094-5.088-5-8.66-5h-94.134c-3.573,0-6.874,1.906-8.66,5l-47.067,81.521 c-1.787,3.094-1.787,6.906,0,10l47.067,81.523c1.786,3.094,5.087,5,8.66,5h94.134c3.573,0,6.874-1.906,8.66-5l47.066-81.523 C330.581,129.684,330.581,125.872,328.795,122.778z M267.296,199.301h-82.587l-41.294-71.523l41.294-71.521h82.587l41.293,71.521 L267.296,199.301z" fill="#000000" style="fill: rgb(215, 23, 42);"></path></g></g><g><g><path d="M212.91,286.218c-0.011-2.652-1.075-5.192-2.958-7.059l-56.733-56.271c-1.873-1.858-4.404-2.9-7.042-2.9 c-0.014,0-0.028,0-0.041,0l-79.905,0.324c-2.652,0.011-5.191,1.075-7.059,2.958L2.9,280.002c-1.867,1.883-2.911,4.431-2.9,7.083 l0.325,79.905c0.01,2.652,1.074,5.192,2.957,7.059l56.732,56.273c1.873,1.858,4.404,2.9,7.042,2.9c0.013,0,0.028,0,0.041-0.001 l79.906-0.325c2.653-0.011,5.192-1.075,7.06-2.958l56.272-56.733c1.867-1.883,2.911-4.431,2.9-7.083L212.91,286.218z M142.779,412.914l-71.621,0.292l-50.85-50.439l-0.292-71.621l50.438-50.851l71.621-0.291l50.852,50.438l0.291,71.62 L142.779,412.914z" fill="#000000" style="fill: rgb(215, 23, 42);"></path></g></g><g><g><path d="M381.501,272.645c-29.132,0-52.832,23.7-52.832,52.832s23.7,52.833,52.832,52.833c29.132,0,52.832-23.702,52.832-52.833 C434.333,296.345,410.633,272.645,381.501,272.645z M381.501,358.31c-18.103,0-32.832-14.729-32.832-32.833 c0-18.103,14.729-32.832,32.832-32.832c18.104,0,32.832,14.728,32.832,32.832C414.333,343.582,399.605,358.31,381.501,358.31z" fill="#000000" style="fill: rgb(215, 23, 42);"></path></g></g><g><g><path d="M226.002,76.777c-28.122,0-51,22.879-51,51c0,28.121,22.878,51,51,51s51-22.879,51-51 C277.002,99.656,254.123,76.777,226.002,76.777z M226.002,158.777c-17.093,0-31-13.906-31-31s13.907-31,31-31s31,13.907,31,31 C257.002,144.871,243.095,158.777,226.002,158.777z" fill="#000000" style="fill: rgb(215, 23, 42);"></path></g></g><g><g><path d="M106.617,272.498c-29.213,0-52.979,23.766-52.979,52.979c0,29.212,23.766,52.979,52.979,52.979 s52.979-23.766,52.979-52.979S135.83,272.498,106.617,272.498z M106.617,358.456c-18.185,0-32.979-14.795-32.979-32.979 c0-18.185,14.794-32.979,32.979-32.979c18.184,0,32.979,14.794,32.979,32.979C139.596,343.661,124.802,358.456,106.617,358.456z" fill="#000000" style="fill: rgb(215, 23, 42);"></path></g></g></svg>