<svg width="35" height="61" viewBox="0 0 35 61" fill="none" xmlns="http://www.w3.org/2000/svg">
<g clip-path="url(#clip0_120_117)">
<path d="M33.9791 34.9097C31.2981 25.5563 21.394 23.1163 11.9368 24.2551C11.7881 21.327 11.4158 18.4806 11.639 15.3899C12.5328 15.3899 13.2775 15.4713 14.0221 15.4713C17.2987 15.7151 20.6494 16.0406 24.0004 16.2846C24.7451 16.3658 25.4152 16.3658 26.1599 16.2846C30.4793 15.9592 32.9366 13.1939 33.3089 9.61532C33.3835 8.80198 33.3835 7.82602 33.3835 6.93128C33.2344 2.53936 30.3302 0.262186 27.5751 0.0181458C24.7451 -0.225895 21.99 -0.144481 9.33043 -0.0632693C4.86272 -0.0632693 1.66037 1.23815 0.766974 6.4434C0.617889 10.4286 0.543346 14.4139 0.469175 18.3992C0.394633 22.3032 0.320091 26.207 0.394633 30.1111C0.469176 32.9575 2.10725 34.9097 4.93689 35.6416C6.35171 35.8856 7.84107 35.8856 9.25626 35.8042C11.0434 35.6416 12.9051 35.6416 14.6923 35.8856C25.7134 37.1056 21.0217 49.9559 11.7881 48.3295L6.79859 47.6787C-0.647846 46.5402 -2.65863 59.5531 4.71363 60.5292C11.4899 61.4238 17.0005 61.3426 21.0962 60.2852C32.1919 57.6826 37.1069 44.9135 33.9791 34.9097ZM27.9614 3.78376C28.0445 3.57843 28.2647 3.48571 28.4525 3.57587C29.2926 3.98075 30.3134 4.90132 30.4043 6.98825L30.4045 7.29919C30.4042 7.52359 30.2375 7.70504 30.0322 7.70504C30.032 7.70504 30.0316 7.70504 30.0314 7.70504C29.8258 7.70463 29.6595 7.52216 29.6598 7.29756L29.66 7.00744C29.602 5.6848 29.0944 4.77415 28.1518 4.32003C27.9638 4.22934 27.8785 3.98925 27.9614 3.78376ZM25.9037 12.2276C26.8602 12.1556 28.1621 11.8702 28.9328 10.9201C29.0694 10.7521 29.3043 10.7366 29.4584 10.8853C29.6124 11.0343 29.6266 11.2914 29.4902 11.4594C28.7373 12.3875 27.5478 12.9191 25.955 13.039L25.8623 13.0475L25.8043 12.6451L25.769 12.2402L25.9037 12.2276ZM20.8353 3.11158C22.433 3.1058 23.6309 3.10918 24.5952 3.12748C24.8008 3.13146 24.9647 3.3167 24.961 3.5413C24.9574 3.7635 24.7914 3.94081 24.5889 3.94081C24.5865 3.94081 24.5843 3.94081 24.5821 3.94081C23.6218 3.92255 22.4286 3.91877 20.8378 3.92491C20.8374 3.92491 20.8369 3.92491 20.8365 3.92491C20.6314 3.92491 20.4649 3.74382 20.4642 3.51963C20.4635 3.29507 20.6297 3.11239 20.8353 3.11158ZM18.346 11.7441L19.1511 11.813C20.117 11.8956 21.1013 11.9796 22.0871 12.0598C22.2922 12.0765 22.446 12.2715 22.4307 12.4955C22.4161 12.7092 22.2529 12.872 22.0598 12.872C22.0505 12.872 22.0413 12.8716 22.0318 12.8708C21.0452 12.7906 20.0599 12.7066 19.0929 12.624L18.2879 12.5551C18.0828 12.5374 17.9297 12.3419 17.9457 12.1179C17.9618 11.8938 18.1433 11.7296 18.346 11.7441ZM13.3278 3.16261L17.0814 3.13464H17.0837C17.2882 3.13464 17.4548 3.31495 17.4561 3.53874C17.4573 3.7633 17.2917 3.94659 17.0861 3.94797L13.3328 3.97595C13.3319 3.97595 13.331 3.97595 13.3303 3.97595C13.1258 3.97595 12.9594 3.79563 12.958 3.57205C12.9565 3.34748 13.1222 3.1642 13.3278 3.16261ZM3.71293 7.40919C3.72112 7.18479 3.89236 7.00846 4.09927 7.01842C4.30473 7.02697 4.46506 7.21582 4.45724 7.44018C4.40962 8.80194 4.37015 10.1687 4.33597 11.5332C4.33053 11.7539 4.16488 11.9288 3.964 11.9288C3.96054 11.9288 3.95707 11.9288 3.95365 11.9286C3.74804 11.9225 3.58604 11.7356 3.59166 11.511C3.62584 10.1437 3.66527 8.77376 3.71293 7.40919ZM4.09071 27.9147C4.09216 28.1393 3.92654 28.3226 3.7209 28.3241C3.72001 28.3241 3.71908 28.3241 3.71837 28.3241C3.51384 28.3241 3.34748 28.1438 3.34603 27.9202C3.3435 27.5158 3.34238 27.1105 3.34238 26.7044C3.34238 25.7428 3.34893 24.7777 3.35947 23.8131C3.36219 23.5883 3.53856 23.4255 3.73635 23.4112C3.94181 23.4139 4.1065 23.598 4.10415 23.8226C4.09361 24.7841 4.08706 25.7459 4.08706 26.7044C4.0871 27.1085 4.08818 27.5122 4.09071 27.9147ZM4.16816 19.7273C4.16399 19.9491 3.998 20.1257 3.796 20.1257C3.79347 20.1257 3.79071 20.1257 3.78818 20.1257C3.58258 20.1209 3.4193 19.9352 3.42347 19.7107L3.50129 15.6114C3.50584 15.3866 3.67056 15.2129 3.88164 15.2135C4.08725 15.2185 4.25033 15.4043 4.24597 15.6289L4.16816 19.7273ZM8.30918 32.59C8.09191 32.5963 7.88303 32.5993 7.67959 32.5995C6.87183 32.5995 6.17094 32.5506 5.53662 32.4503C5.52336 32.4481 5.51026 32.4454 5.49715 32.4416C5.08519 32.3258 4.72975 32.1763 4.44104 31.9976C4.26213 31.8868 4.19943 31.6386 4.30067 31.4432C4.40213 31.2476 4.62919 31.1791 4.80828 31.2899C5.03571 31.4309 5.32334 31.5514 5.66351 31.6485C6.41002 31.7648 7.26197 31.8059 8.28952 31.7769C8.48879 31.7638 8.66603 31.9483 8.6715 32.1727C8.67697 32.3974 8.51482 32.5842 8.30918 32.59ZM8.61245 18.7122C8.61971 18.9366 8.45919 19.1251 8.25355 19.1332C8.24901 19.1334 8.24446 19.1334 8.24011 19.1334C8.04049 19.1334 7.8754 18.9609 7.86814 18.7412C7.85377 18.3034 7.84561 17.86 7.84561 17.4101C7.84561 16.5951 7.87235 15.8297 7.92708 15.0699C7.93944 14.897 7.96234 14.7224 7.99525 14.5517C8.03763 14.3317 8.23597 14.1911 8.43614 14.2374C8.63739 14.2834 8.7663 14.4991 8.72392 14.7189C8.69775 14.8555 8.67939 14.9949 8.66957 15.1333C8.61628 15.8722 8.59029 16.6166 8.59029 17.4101C8.59026 17.8501 8.59845 18.2839 8.61245 18.7122ZM9.6782 26.989C9.6073 27.0579 9.51895 27.0916 9.43111 27.0916C9.32838 27.0916 9.22603 27.0455 9.1526 26.955C8.59699 26.2717 8.26539 25.3929 8.21903 24.4804C8.19159 23.9393 8.15596 23.4016 8.11686 22.8482C8.10104 22.6244 8.25448 22.4288 8.45956 22.4116C8.66245 22.3931 8.84337 22.5617 8.85935 22.7859C8.89881 23.3448 8.93478 23.8885 8.96259 24.4354C8.99968 25.1653 9.26494 25.8682 9.70929 26.4149C9.84582 26.5829 9.83201 26.8398 9.6782 26.989ZM9.57893 4.00177L9.3362 4.00336C7.83556 4.00336 6.75384 4.16399 6.0233 4.49461C5.97676 4.51568 5.92839 4.5258 5.88096 4.5258C5.73478 4.5258 5.59627 4.43129 5.5368 4.2746C5.45809 4.06708 5.54827 3.82922 5.73824 3.74325C6.57217 3.36579 7.71358 3.19002 9.33039 3.19002L9.57565 3.18844H9.57729C9.78219 3.18844 9.94874 3.36932 9.94963 3.59331C9.95053 3.81792 9.78454 4.00079 9.57893 4.00177ZM10.4699 11.9349C10.4205 11.7169 10.5421 11.4963 10.7418 11.4423C11.0339 11.3633 11.3357 11.3232 11.639 11.3232C12.1991 11.3232 12.6871 11.3488 13.1174 11.3712C13.5698 11.3951 13.9232 11.3877 14.2757 11.4141L14.5997 11.4386C14.8048 11.4541 14.9597 11.648 14.9455 11.8722C14.932 12.0867 14.7684 12.2509 14.5744 12.2509C14.5659 12.2509 14.5571 12.2505 14.5484 12.2499L14.2242 12.2255C13.8781 12.1995 13.5245 12.2068 13.0881 12.184C12.6596 12.1615 12.1813 12.1365 11.6389 12.1365C11.3961 12.1365 11.1544 12.1685 10.921 12.2319C10.7216 12.2856 10.5196 12.153 10.4699 11.9349ZM20.4022 27.5783C21.7442 27.7978 22.9935 28.1271 24.1156 28.5574C24.3096 28.6317 24.4118 28.8638 24.3436 29.0757C24.29 29.2431 24.146 29.3479 23.9923 29.3479C23.9514 29.3479 23.9098 29.3404 23.8691 29.3247C22.7909 28.9117 21.5874 28.5946 20.292 28.3825C20.0886 28.3493 19.9484 28.1422 19.979 27.9202C20.0095 27.698 20.2015 27.5442 20.4022 27.5783ZM15.7895 32.7526C15.7716 32.7526 15.7538 32.7512 15.7357 32.7484C15.5064 32.7122 15.2715 32.6803 15.0311 32.6531C14.0752 32.5242 13.0729 32.4527 12.0448 32.4396C11.8392 32.437 11.6745 32.2527 11.6768 32.0282C11.6792 31.8052 11.8455 31.6263 12.0491 31.6263H12.0535C13.1091 31.6398 14.1392 31.7135 15.1151 31.8449C15.3584 31.8725 15.6031 31.9057 15.8422 31.9434C16.0456 31.9756 16.1869 32.1817 16.1574 32.4041C16.1307 32.6066 15.9714 32.7526 15.7895 32.7526ZM16.599 28.0654C16.4487 28.063 16.3111 28.0537 16.1573 28.062C15.0986 28.062 13.9998 28.1206 12.8908 28.236C12.8788 28.2372 12.8669 28.2378 12.8551 28.2378C12.6653 28.2378 12.5031 28.0801 12.4848 27.8696C12.4654 27.646 12.6155 27.4477 12.8202 27.4262C13.9523 27.3084 15.0752 27.2487 16.1573 27.2487C16.2998 27.2444 16.4558 27.2497 16.61 27.2521C16.8156 27.2555 16.9798 27.4401 16.9769 27.6647C16.974 27.8892 16.7943 28.0775 16.599 28.0654ZM19.2389 33.8131C19.0511 33.7214 18.967 33.4809 19.0509 33.2758C19.1352 33.0707 19.3548 32.9795 19.5428 33.0705C20.8026 33.6858 21.8671 34.5087 22.7068 35.5168C22.8452 35.6828 22.8341 35.9402 22.6819 36.0913C22.6107 36.1622 22.5209 36.1971 22.4316 36.1971C22.3303 36.1971 22.2294 36.1522 22.156 36.0641C21.3858 35.1396 20.4042 34.3823 19.2389 33.8131ZM12.9142 51.7152C13.0701 51.7217 13.214 51.7217 13.3814 51.7247C14.4626 51.7247 15.5175 51.574 16.5169 51.2767C16.715 51.2172 16.9197 51.3454 16.9739 51.5622C17.0279 51.7789 16.9108 52.0025 16.7125 52.0614C15.6449 52.379 14.5101 52.5485 13.368 52.538C13.2084 52.538 13.0476 52.5346 12.8865 52.5281C12.6809 52.5195 12.5206 52.3309 12.5282 52.1065C12.536 51.8822 12.7042 51.7069 12.9142 51.7152ZM5.73135 57.3811C5.71716 57.3811 5.70298 57.3803 5.68864 57.3786C5.48393 57.3529 5.27829 57.3267 5.07123 57.2993C3.41841 57.0809 3.07154 55.7553 3.07154 54.6818C3.07154 54.6105 3.07318 54.5369 3.07608 54.461C3.08498 54.2365 3.26407 54.0656 3.46387 54.072C3.66933 54.0815 3.82877 54.2712 3.82002 54.4956C3.81748 54.5595 3.81618 54.6217 3.81618 54.6818C3.81618 56.3143 4.72413 56.4342 5.16048 56.492C5.36594 56.519 5.57009 56.5452 5.77298 56.5704C5.97732 56.596 6.12406 56.7976 6.10079 57.0206C6.07897 57.2281 5.91804 57.3811 5.73135 57.3811ZM6.2842 51.7065C5.99605 51.6622 5.73623 51.6633 5.50061 51.718C5.29824 51.7636 5.10172 51.6237 5.0592 51.4042C5.01664 51.1844 5.14536 50.9686 5.34646 50.9221C5.66697 50.8484 6.01623 50.8439 6.38566 50.9007C6.40819 50.9037 7.13835 50.999 8.03174 51.1155L9.20603 51.2688C9.41019 51.2956 9.556 51.498 9.53164 51.721C9.50893 51.9277 9.34819 52.0794 9.16239 52.0794C9.1475 52.0794 9.13257 52.0784 9.11768 52.0766L7.94339 51.9231C7.03398 51.8045 6.29295 51.7077 6.2842 51.7065ZM13.297 57.8909H13.219C12.0357 57.8909 10.7655 57.8432 9.44418 57.7493C9.23891 57.7346 9.08346 57.5412 9.09675 57.317C9.11038 57.093 9.29309 56.9266 9.49255 56.9376C10.7979 57.0305 12.0516 57.0775 13.219 57.0775H13.297C13.5027 57.0775 13.6694 57.2597 13.6694 57.4842C13.6694 57.7088 13.5027 57.8909 13.297 57.8909ZM20.8306 57.0148C20.7115 57.0462 20.5919 57.0758 20.4713 57.1043L20.4108 57.119C19.4138 57.3766 18.2933 57.5723 17.0808 57.7008C17.0686 57.7022 17.0565 57.7028 17.0444 57.7028C16.855 57.7028 16.6928 57.5456 16.6743 57.3355C16.6543 57.1119 16.8041 56.9131 17.0088 56.8915C18.188 56.7664 19.275 56.5766 20.2397 56.3276L20.3162 56.3089C20.4286 56.2823 20.5428 56.2539 20.6564 56.2241C20.8553 56.1717 21.0573 56.3057 21.1055 56.5244C21.1537 56.7427 21.0306 56.9624 20.8306 57.0148ZM22.9859 47.3568C22.2345 48.501 21.3033 49.4914 20.2181 50.3006C20.1539 50.3487 20.0808 50.3715 20.0084 50.3715C19.8896 50.3715 19.7726 50.3096 19.7006 50.1942C19.5847 50.0087 19.6283 49.7556 19.7981 49.6291C20.8113 48.8735 21.6803 47.9494 22.3808 46.8827C22.5004 46.7006 22.7328 46.6581 22.9004 46.7894C23.0675 46.9202 23.1057 47.1744 22.9859 47.3568ZM24.1064 38.9654C24.306 38.9086 24.5086 39.0403 24.5596 39.2579C24.7305 39.9836 24.8173 40.7314 24.8173 41.4806C24.8173 41.6304 24.814 41.7789 24.8071 41.926C24.7829 42.4486 24.7144 42.9816 24.6031 43.51C24.5635 43.6982 24.4102 43.8255 24.2406 43.8255C24.213 43.8255 24.185 43.8221 24.1568 43.8152C23.9564 43.7649 23.8313 43.5467 23.8773 43.3277C23.9788 42.8456 24.0415 42.3601 24.0635 41.8849C24.0697 41.7511 24.0726 41.6164 24.0726 41.4807C24.0726 40.7998 23.9939 40.1201 23.8386 39.4604C23.7873 39.243 23.9071 39.0212 24.1064 38.9654ZM27.4916 52.9898C26.5764 53.9787 25.5408 54.8242 24.4136 55.5033C24.3568 55.5377 24.2949 55.5539 24.2342 55.5539C24.103 55.5539 23.9757 55.4781 23.9079 55.3436C23.8084 55.1471 23.8739 54.8996 24.054 54.7912C25.1212 54.1482 26.1015 53.3476 26.9681 52.4116C27.1142 52.2535 27.3498 52.2551 27.4946 52.4147C27.6391 52.5744 27.6378 52.8319 27.4916 52.9898ZM27.1055 31.1271C26.9389 30.9955 26.9017 30.7411 27.0222 30.5592C27.1429 30.3775 27.3757 30.3364 27.5422 30.4683C28.6349 31.3323 29.5232 32.373 30.1829 33.562C30.2895 33.754 30.2333 34.004 30.0573 34.1205C29.9971 34.1604 29.9304 34.1793 29.8648 34.1793C29.7388 34.1793 29.6161 34.1096 29.5461 33.9833C28.9383 32.888 28.1171 31.927 27.1055 31.1271ZM31.3267 45.8058C30.9865 47.1142 30.5071 48.3695 29.9018 49.5371L29.8342 49.6664C29.7651 49.7963 29.6402 49.8688 29.5119 49.8688C29.4484 49.8688 29.3841 49.8511 29.3251 49.8137C29.1474 49.701 29.087 49.452 29.1903 49.2578L29.2535 49.137C29.8299 48.0252 30.2862 46.8299 30.6103 45.5834C30.6663 45.3676 30.8712 45.2415 31.0703 45.3035C31.2681 45.3648 31.3829 45.5896 31.3267 45.8058ZM31.9192 41.6677C31.9124 41.8875 31.7472 42.0609 31.5472 42.0609C31.543 42.0609 31.5388 42.0609 31.5347 42.0606C31.3292 42.0533 31.1681 41.8652 31.1749 41.6407C31.1801 41.465 31.1829 41.289 31.1829 41.1135C31.1829 39.9431 31.0649 38.7861 30.8323 37.6749C30.7866 37.456 30.912 37.2378 31.1125 37.1878C31.3123 37.1379 31.5126 37.275 31.5585 37.4937C31.8034 38.6643 31.9275 39.8821 31.9275 41.1134C31.9275 41.2981 31.9248 41.4828 31.9192 41.6677Z" fill="#D7172A"/>
</g>
<defs>
<clipPath id="clip0_120_117">
<rect width="35" height="61" fill="white"/>
</clipPath>
</defs>
</svg>
