<!-- icon666.com - MILLIONS OF FREE VECTOR ICONS --><svg viewBox="0 -31 512 512" xmlns="http://www.w3.org/2000/svg"><path d="m15 390h62c8.289062 0 15-6.710938 15-15v-150c0-8.289062-6.710938-15-15-15h-62c-8.289062 0-15 6.710938-15 15v150c0 8.289062 6.710938 15 15 15zm0 0"></path><path d="m377 0c-74.441406 0-135 60.558594-135 135s60.558594 135 135 135 135-60.558594 135-135-60.558594-135-135-135zm30 120c8.289062 0 15 6.710938 15 15v60c0 8.289062-6.710938 15-15 15h-15v15c0 8.289062-6.710938 15-15 15s-15-6.710938-15-15v-15h-15c-8.289062 0-15-6.710938-15-15s6.710938-15 15-15h45v-30h-45c-8.289062 0-15-6.710938-15-15v-60c0-8.289062 6.710938-15 15-15h15v-15c0-8.289062 6.710938-15 15-15s15 6.710938 15 15v15h15c8.289062 0 15 6.710938 15 15s-6.710938 15-15 15h-45v30zm0 0"></path><path d="m122 210v150h12.464844l63.984375 66.855469c14.078125 14.707031 33.824219 23.144531 54.171875 23.144531h199.378906c16.570312 0 30-13.433594 30-30 0-16.570312-13.429688-30-30-30h-195c-8.285156 0-15-6.714844-15-15s6.714844-15 15-15h105c16.570312 0 30-13.433594 30-30 0-16.570312-13.429688-30-30-30h-73.929688l-50.464843-50.464844c-25.488281-25.488281-59.398438-39.535156-95.464844-39.535156zm0 0"></path></svg>