<!-- icon666.com - MILLIONS OF FREE VECTOR ICONS --><svg id="Layer_1" viewBox="0 0 64 64" xmlns="http://www.w3.org/2000/svg"><g fill="rgb(0,0,0)"><path d="m19.24367 51.50006h-2.59814l.34033-1.14307c.35423-1.27517-1.52477-1.81724-1.917-.57028l-.51012 1.71334h-2.88391l1.05371-4.6582c.38086-1.6748 1.53467-3.11768 3.08887-3.86084l8.86816-4.27197 3.33008 9.01709c.2834.852 1.59341.85988 1.87646-.00055l3.32032-9.01703 8.42773 4.05273c.49707.23877 1.0957.02979 1.33496-.46777.23926-.49805.0293-1.0957-.46777-1.33496l-9.06976-4.36096-.71765-1.77045c3.36664-1.41748 6.02252-4.66602 7.1355-8.76019h2.33453c1.3125 0 2.38086-1.06787 2.38086-2.38037v-3.82617c0-1.26337-.99261-2.28998-2.2373-2.36584.03164-3.56359-1.33236-6.94708-3.83594-9.49499-.92989-.91993-2.33534.45634-1.4277 1.40142 2.10446 2.14301 3.26364 4.97358 3.26364 7.96919v.10986h-.4718c-1.77456-6.76031-7.96299-11.20391-14.21897-8.96116-3.59145 1.296-6.44106 4.65568-7.60219 8.96116h-.46729c-.0625-6.30721 5.066-11.48365 11.38037-11.47998 1.54052 0 3.02441.29638 4.41113.88134.50781.21436 1.0957-.02344 1.31055-.53271.80263-1.9326-4.48303-2.32994-5.72163-2.34875-7.37798.00011-13.38042 5.99816-13.38042 13.37023v.12396c-1.24707.07367-2.2417 1.10144-2.2417 2.36627v3.82617c-.00615 1.40526 1.21875 2.48687 2.60695 2.38035l.55419 3.55764c.30216 2.31908 2.97128 3.69251 5.0607 2.70961 1.0621 1.08323 2.29062 1.92973 3.62991 2.49345l-.71338 1.76526-9.51825 4.5849c-2.09814 1.00391-3.6582 2.95508-4.17383 5.22168l-1.33008 5.87988c-.15067.60099.35236 1.23811.9756 1.22069l8.82029.00002c1.32172-.03226 1.31071-1.97335 0-2zm21.17578-30.4209c-.02228-.5434-.07794-1.07477-.15021-1.59912h1.92072c.21387 0 .38086.16699.38086.38037v3.82617c0 .21338-.16699.38037-.38086.38037h-1.9325c.13866-.96386.20024-1.99499.16199-2.98779zm-11.46729 23.41064-1.63232-4.42059c.52119.16329 1.06754.25865 1.62988.25848.56256-.00012 1.10913-.09601 1.63116-.2608zm-.00293-6.16211c-1.00337.00043-1.91427-.40931-2.56348-1.13916l.71802-1.77533c.60297.11841 1.21716.19623 1.84741.19623.63062 0 1.24506-.07788 1.84833-.19647l.7171 1.76874c-.64941.7334-1.56104 1.14551-2.56738 1.146zm-9.39453-18.07935c1.30084-12.05808 14.86684-14.40594 18.39515-2.19164.21091.80474.35777 1.63059.42004 2.46257-.76653.22151-1.62874-.29644-1.79321-1.08125l-.58204-2.49461c-.38691-1.91231-2.61532-3.00419-4.37308-2.18453-1.68552.74606-3.65866.74459-5.33737.00143-.86475-.38867-1.84961-.3667-2.69873.05615-.85254.42383-1.46338 1.19775-1.67627 2.12109l-.5835 2.5c-.10791.46094-.41943.83105-.85449 1.01562-.31321.11443-1.06672.29836-.9165-.20483zm-3.84229 3.8186c-.21338 0-.38086-.16699-.38086-.38037v-3.82617c0-.21338.16748-.38037.38086-.38037h1.92078c-.22304 1.49788-.20651 3.09684.01167 4.58691h-1.93244zm3.50488 6.3623c-.40332-.24219-.67578-.64746-.74805-1.1123l-.50629-3.25c.69697 1.61526 1.05865 3.05014 2.19203 4.57672-.32429.02686-.6523-.04297-.9377-.21441zm4.46619 1.17639 3.17908-1.08734c1.55148 1.94895 4.89265.75145 4.83907-1.76884-.08699-3.55292-5.25168-3.66089-5.48848-.12299l-4.05182 1.38591c-1.52448-1.95911-2.50513-4.57208-2.65668-7.46674 1.6957.22971 3.41065-.9712 3.76829-2.65303l.58449-2.5034c.14245-.6948.96977-1.11225 1.6128-.80223 2.19921.97459 4.75585.97752 6.96874-.00295.644-.29465 1.46552.10296 1.60643.80812l.584 2.50145c.25488 1.08936.99219 1.96436 2.02148 2.40088.56488.24017 1.16211.30841 1.74731.23871-.26134 8.43263-8.35447 14.37439-14.71472 9.07245zm4.51721-2.85608c.00483-.98127 1.49628-.9812 1.50097.00005-.00483.98123-1.49628.98116-1.50097-.00005z" fill="rgb(0,0,0)" style="fill: rgb(215, 23, 42);"></path><path d="m36.2632 51.50006h-13.01953c-1.31038.0211-1.31755 1.97741.00005 2h13.01949c1.3105-.02085 1.31764-1.97767 0-2z" fill="rgb(0,0,0)" style="fill: rgb(215, 23, 42);"></path><path d="m52.56184 51.96002c0-.02997.02002-.06.03998-.07996l1.61005-1.31c.38-.31.47998-.85004.22998-1.27002l-1.54999-2.70001c-.25-.42999-.77002-.62-1.23004-.44l-2.00995.73004c0-.01001-.07001-.08002-.07001-.08002l-.33002-2.04004c-.08002-.48999-.48999-.83997-.98999-.83997h-3.10999c-.5 0-.91003.34998-.99005.83997l-.35999 2.10004c-.01001 0-.12.02002-.13.02997l-1.91998-.73999c-.46002-.17999-.97998.01001-1.21997.44l-1.56006 2.70001c-.25.41998-.14996.96002.23004 1.27002l1.60999 1.31c.10345.09704.06595.05992 0 .16999l-1.60998 1.30999c-.38.31-.48004.84998-.23004 1.27002l1.56006 2.69995c.23999.43005.75995.61005 1.21997.44l2.01001-.72998.07001.08002.32996 2.03998c.08002.48004.49005.84003.99005.84003h3.10999c.5 0 .90997-.35999.98999-.84003l.37-2.09998s.10999-.02002.12-.03003l1.91998.73999c.46002.17004.98004-.00995 1.23004-.44l1.54999-2.69995c.25-.42004.15002-.96002-.22998-1.27002l-1.65002-1.40002zm-1.21997 1.64001.94995.77002-.70996 1.21997-1.13-.42999c-1.19278-.48148-2.67691.35983-2.85002 1.65006l-.19002 1.18997h-1.40997c-.14071-.97356-.22547-2.18431-1.23005-2.68996-.91087-.61293-2.04252-.08106-2.93994.28001l-.71002-1.22005c.76924-.60388 1.79945-1.30162 1.72991-2.41007.0785-1.09047-.97647-1.80874-1.72999-2.39989l.7101-1.23007c.91523.37778 2.01862.903 2.95996.26994.97287-.46274 1.07763-1.7325 1.20996-2.66996l1.41004.00005.19 1.19c.17519 1.28125 1.64734 2.1321 2.85005 1.64993l1.12999-.43997.70996 1.23004-.94995.76996c-1.0257.78236-1.03092 2.48369 0 3.27002z" fill="rgb(0,0,0)" style="fill: rgb(215, 23, 42);"></path><path d="m48.58449 51.07135c-.5127-.03906-1.02148.39502-1.0498.94727-.02246.43799-.3877.78125-.83105.78125-1.02261.0062-1.1213-1.57357-.08589-1.65283 1.3107-.12164 1.16074-2.06503-.14853-1.99413-1.47945.11034-2.59566 1.31738-2.59566 2.80712 0 1.56592 1.26953 2.83984 2.83008 2.83984 1.50879 0 2.75195-1.17676 2.8291-2.67871.02832-.55176-.39648-1.02148-.94824-1.0498z" fill="rgb(0,0,0)" style="fill: rgb(215, 23, 42);"></path></g></svg>