<svg width="38" height="61" viewBox="0 0 38 61" fill="none" xmlns="http://www.w3.org/2000/svg">
<g clip-path="url(#clip0_120_187)">
<path d="M32.0415 28.7109C34.6258 24.2746 37.2097 19.1253 36.3736 13.3423C35.1575 5.34115 27.4819 0.033393 19.274 0.112693C8.93793 0.271095 0.957928 8.19298 2.32616 18.7292C2.85793 22.6902 5.44223 27.2058 10.3819 26.6513C12.1301 26.4927 13.7258 25.7006 15.1701 24.6707C16.3097 23.6408 17.1458 22.5318 17.5258 21.0267C18.3619 17.6202 17.5258 14.689 15.0179 12.154C14.7901 11.8372 14.4101 11.5995 14.1058 11.3618C16.614 6.76716 23.9858 8.82678 24.0619 15.7189C24.0619 17.7786 23.9858 19.7591 23.6058 21.8187C22.9979 24.6707 21.1736 26.4136 19.4258 28.6316C17.9058 30.6121 18.2097 32.6719 20.1097 34.3354C20.7936 34.8108 21.4779 35.286 22.1619 35.7615C23.5297 36.7121 24.2136 38.1381 24.5179 39.8016C24.7458 41.386 24.5936 42.9704 24.3658 44.4755C23.8336 48.3573 20.4136 50.7339 16.4619 49.1495C16.6897 48.6743 16.9179 48.2782 17.0697 47.8028C17.9819 45.6638 18.4379 43.4458 17.8297 41.1483C15.2458 32.2758 1.33793 33.4641 0.274005 42.812C-0.485995 48.8327 2.63008 55.1701 8.10185 58.4183C10.534 59.8441 13.194 60.5572 16.0058 60.7949C19.7297 61.1117 23.4536 60.6363 27.0258 59.2105C31.8897 57.3091 35.5375 53.1898 36.9815 47.7237C38.8054 40.6731 37.9697 34.2563 32.0415 28.7109ZM13.6934 6.71559C13.8173 6.89197 13.7808 7.13993 13.6115 7.2693C12.736 7.93832 12.0132 8.78796 11.4637 9.79466C11.3995 9.91226 11.3418 10.0355 11.2924 10.1606C11.2321 10.3136 11.0904 10.4062 10.9408 10.4062C10.8927 10.4062 10.8437 10.3965 10.7964 10.3762C10.6024 10.293 10.5098 10.0616 10.5896 9.85923C10.6512 9.70296 10.7232 9.54939 10.8031 9.40279C11.406 8.29862 12.1997 7.36579 13.1622 6.63026C13.3313 6.5011 13.5692 6.5392 13.6934 6.71559ZM6.61438 10.5101C6.71478 10.3178 6.94502 10.2471 7.12981 10.3515C7.31408 10.4562 7.38236 10.6967 7.28196 10.8888C6.68859 12.0251 6.29169 13.2584 6.10225 14.5549C6.07349 14.7508 5.91149 14.8912 5.72708 14.8912C5.70797 14.8912 5.68866 14.8899 5.66921 14.8868C5.46176 14.8537 5.31926 14.6518 5.3508 14.4354C5.55376 13.048 5.97887 11.7274 6.61438 10.5101ZM7.61743 22.406C7.54378 22.48 7.44878 22.517 7.35378 22.517C7.25415 22.517 7.1547 22.4764 7.0803 22.3957C5.95812 21.1824 5.52021 19.323 5.38402 18.5797C5.34469 18.3648 5.47993 18.1575 5.68608 18.1163C5.89443 18.0763 6.09131 18.2165 6.13064 18.4312C6.25403 19.1046 6.64683 20.7858 7.62727 21.846C7.77292 22.0035 7.76867 22.2541 7.61743 22.406ZM9.58051 7.84183C9.50759 7.91166 9.41536 7.94608 9.32371 7.94608C9.22092 7.94608 9.1185 7.90295 9.04353 7.81786C8.9016 7.65677 8.91197 7.40608 9.06652 7.25813C10.0204 6.34543 11.1235 5.56871 12.3453 4.9498C12.5335 4.85406 12.7615 4.93605 12.8531 5.13295C12.9448 5.32966 12.8663 5.56677 12.6774 5.66231C11.5221 6.24771 10.48 6.98094 9.58051 7.84183ZM14.3409 20.8782C14.1327 21.2798 13.8014 21.6919 13.328 22.1385C13.3139 22.152 13.2987 22.1642 13.2828 22.1752C12.4706 22.7354 11.7314 23.1092 11.0226 23.3183C10.9881 23.3283 10.9532 23.3334 10.9191 23.3334C10.7534 23.3334 10.6008 23.2193 10.5535 23.0448C10.4964 22.8344 10.6138 22.6154 10.8159 22.5559C11.441 22.3716 12.1032 22.0362 12.8393 21.5312C13.2361 21.154 13.5087 20.8169 13.6726 20.5015C13.7726 20.3092 14.0036 20.2373 14.1875 20.3415C14.3721 20.4456 14.4409 20.6858 14.3409 20.8782ZM14.4236 16.6203C14.506 16.8215 14.4162 17.0541 14.2231 17.14C14.1745 17.1617 14.124 17.1719 14.0743 17.1719C13.9266 17.1719 13.7861 17.0816 13.7245 16.931C13.4584 16.2807 13.0163 15.6482 12.3724 14.9976C12.3131 14.9374 12.2557 14.8756 12.2003 14.8118L12.1221 14.7545C12.021 14.6799 11.9218 14.6056 11.8271 14.5319C11.6367 14.3832 11.4592 14.2155 11.2991 14.0331C11.1575 13.8716 11.1683 13.6211 11.3232 13.4734C11.4779 13.3256 11.7184 13.3372 11.8602 13.4985C11.988 13.6446 12.1301 13.7788 12.2825 13.8977C12.3719 13.9673 12.466 14.0373 12.5619 14.1083L12.6769 14.1928C12.6998 14.2101 12.7205 14.2298 12.7393 14.2516C12.7912 14.3129 12.8454 14.3721 12.9016 14.429C13.6193 15.1543 14.1171 15.8711 14.4236 16.6203ZM16.1622 4.42543C15.9852 4.42543 15.8269 4.29602 15.7902 4.10823C15.7484 3.89394 15.8811 3.68488 16.0869 3.64115C17.1334 3.41913 18.2207 3.29804 19.3188 3.28121L19.4539 3.28061C19.6424 3.28061 19.8285 3.2837 20.0138 3.29028C20.2237 3.29765 20.3879 3.48096 20.3808 3.69953C20.3738 3.9181 20.1971 4.09275 19.9882 4.08209C19.8114 4.07591 19.6338 4.07282 19.4555 4.07282L19.326 4.07342C18.2789 4.08946 17.2388 4.20532 16.2383 4.41751C16.2129 4.4229 16.1873 4.42543 16.1622 4.42543ZM21.103 5.86266C21.0525 6.03266 20.9022 6.14195 20.74 6.14195C20.7028 6.14195 20.6651 6.13617 20.6276 6.12416C19.8218 5.8646 18.9996 5.73289 18.1841 5.73289C18.1836 5.73289 18.183 5.73289 18.1823 5.73289C17.7783 5.73289 17.3739 5.76442 16.9799 5.82669C16.7721 5.85996 16.5787 5.71063 16.5472 5.4944C16.5159 5.27816 16.6585 5.07623 16.866 5.04335C17.2976 4.97526 17.7403 4.94064 18.1823 4.94064H18.1841C19.0759 4.94064 19.9734 5.08415 20.8521 5.36713C21.0525 5.43173 21.165 5.65355 21.103 5.86266ZM23.7277 32.565C23.6544 32.6796 23.534 32.7414 23.4112 32.7414C23.3388 32.7414 23.2655 32.72 23.2008 32.6749L21.9814 31.8275C21.9647 31.8159 21.9487 31.803 21.934 31.7887C21.7476 31.6088 21.6422 31.4653 21.5863 31.3765C21.5127 31.2593 21.5041 31.1102 21.5637 30.9845C21.6149 30.876 21.6899 30.7563 21.7865 30.6287C22.0793 30.2575 22.3693 29.9065 22.6549 29.5606L22.8147 29.3674C22.9514 29.2018 23.1913 29.1827 23.3505 29.3256C23.5096 29.4682 23.5275 29.7185 23.3906 29.8842L23.2504 30.0542C22.9488 30.419 22.6625 30.7654 22.3785 31.1255C22.377 31.1273 22.3757 31.129 22.3744 31.1308C22.3911 31.1483 22.4093 31.1669 22.429 31.1864L23.6224 32.0158C23.7969 32.137 23.8441 32.383 23.7277 32.565ZM14.7443 45.2796C14.6278 45.6696 14.4754 46.0854 14.2917 46.5157C14.252 46.6091 14.2164 46.7048 14.1854 46.8021C14.1513 46.9085 14.0665 47.0802 13.941 47.3305C13.8759 47.4605 13.8095 47.5936 13.7427 47.7328C13.5609 48.1119 13.4551 48.5187 13.4284 48.942C13.415 49.1515 13.248 49.312 13.0495 49.312C13.0411 49.312 13.0326 49.3118 13.0241 49.3112C12.8146 49.2967 12.6561 49.1081 12.6699 48.8898C12.7035 48.3608 12.8357 47.8523 13.0629 47.3787C13.1315 47.2354 13.2002 47.098 13.2673 46.9636C13.3247 46.8495 13.4438 46.6122 13.4646 46.551C13.5028 46.4305 13.5473 46.3112 13.5972 46.194C13.769 45.7913 13.9108 45.4043 14.0188 45.0436C14.081 44.8349 14.2952 44.7185 14.4946 44.7835C14.6949 44.8485 14.8068 45.0707 14.7443 45.2796ZM4.61547 49.4227C4.56759 49.4437 4.51769 49.4538 4.46871 49.4538C4.32028 49.4538 4.17926 49.3625 4.1182 49.2107C3.58734 47.8926 3.28399 46.5356 3.21608 45.1781C3.20514 44.9595 3.36618 44.7733 3.57567 44.7618C3.78866 44.7467 3.96403 44.9181 3.97498 45.1367C4.03825 46.4029 4.32233 47.6706 4.81884 48.9043C4.90009 49.106 4.809 49.3381 4.61547 49.4227ZM4.62603 41.4685C4.55459 41.5913 4.42934 41.659 4.30094 41.659C4.23376 41.659 4.16566 41.6404 4.10406 41.6013C3.92463 41.4878 3.86748 41.2443 3.97661 41.0573C4.82846 39.5953 6.23544 38.9143 7.26581 38.6002C7.46805 38.5395 7.67846 38.6596 7.73728 38.8692C7.7961 39.0793 7.68051 39.2992 7.47918 39.3607C6.57801 39.6353 5.35134 40.2239 4.62603 41.4685ZM9.72989 55.2894C9.65807 55.4105 9.53358 55.4772 9.40628 55.4772C9.33818 55.4772 9.26917 55.458 9.20682 55.418C8.08335 54.6943 7.07209 53.7883 6.20113 52.7253C6.06475 52.559 6.08367 52.3089 6.24324 52.1669C6.40299 52.0248 6.64254 52.0449 6.77892 52.2108C7.59866 53.2113 8.54995 54.0635 9.60646 54.7441C9.78499 54.859 9.84028 55.1031 9.72989 55.2894ZM10.8222 38.8139C10.8769 38.6029 11.0845 38.4774 11.2879 38.5345C12.7621 38.9485 13.8817 39.8259 14.5253 41.0718C14.6248 41.2644 14.5558 41.5047 14.3709 41.6083C14.3136 41.6405 14.252 41.6557 14.1912 41.6557C14.0559 41.6557 13.9249 41.5803 13.8563 41.4474C13.3063 40.3833 12.3758 39.6605 11.0901 39.2994C10.8875 39.2425 10.7675 39.0251 10.8222 38.8139ZM16.7551 57.6732C16.7473 57.6732 16.7393 57.673 16.7313 57.6724C16.5719 57.6621 16.4123 57.6501 16.253 57.6366C15.0382 57.5341 13.8923 57.3316 12.8474 57.0349C12.645 56.9775 12.5255 56.7597 12.5806 56.5487C12.6359 56.3379 12.8449 56.2133 13.0471 56.2706C14.0468 56.5543 15.1462 56.7483 16.3146 56.8472C16.4691 56.8603 16.6235 56.8719 16.7781 56.8818C16.9875 56.8951 17.1469 57.0831 17.1339 57.3015C17.1215 57.5115 16.9543 57.6732 16.7551 57.6732ZM18.5276 53.5998C18.5226 53.5998 18.5173 53.5995 18.5122 53.5993C17.3742 53.5522 16.2255 53.2988 15.0977 52.8464C14.9319 52.7799 14.7697 52.7007 14.6155 52.6114C14.432 52.5052 14.3658 52.264 14.4678 52.0729C14.5697 51.8816 14.8007 51.813 14.9844 51.919C15.1081 51.9905 15.238 52.0538 15.3709 52.1071C16.4205 52.5282 17.4878 52.764 18.5426 52.8079C18.7523 52.8166 18.9154 53.0009 18.907 53.2195C18.8989 53.4326 18.7306 53.5998 18.5276 53.5998ZM33.1138 15.2719H33.1171C33.327 15.2738 33.4957 15.4527 33.4938 15.6715C33.4829 16.9795 33.2739 18.3105 32.8553 19.741C32.8054 19.9116 32.6548 20.0216 32.492 20.0216C32.4553 20.0216 32.418 20.016 32.3809 20.0042C32.1803 19.9404 32.0671 19.719 32.1283 19.5097C32.5254 18.1531 32.7233 16.8954 32.7338 15.6645C32.7357 15.4469 32.9054 15.2719 33.1138 15.2719ZM30.1003 8.06967C30.2551 7.92192 30.4955 7.93333 30.6373 8.09403C31.5697 9.15467 32.2883 10.3306 32.7731 11.5889C32.8514 11.7918 32.757 12.0225 32.5621 12.104C32.5158 12.1235 32.4679 12.1328 32.4207 12.1328C32.2701 12.1328 32.1276 12.0388 32.068 11.8841C31.6174 10.7146 30.9473 9.61946 30.077 8.6294C29.9352 8.46807 29.9456 8.21741 30.1003 8.06967ZM28.8008 26.6422C29.3502 25.6991 30.0606 24.4517 30.6843 23.1643C30.7791 22.9692 31.0071 22.8903 31.1947 22.9893C31.3821 23.0879 31.4573 23.326 31.3626 23.5214C30.7271 24.8333 30.007 26.0982 29.4506 27.0534C29.379 27.1763 29.2537 27.2439 29.1253 27.2439C29.0581 27.2439 28.99 27.2254 28.9284 27.1865C28.749 27.073 28.6918 26.8293 28.8008 26.6422ZM27.8617 15.6736L27.8619 15.719C27.8619 16.522 27.853 17.5939 27.7841 18.7634C27.7717 18.9735 27.6045 19.1352 27.4052 19.1352C27.3975 19.1352 27.3895 19.135 27.3817 19.1344C27.1722 19.121 27.0128 18.9331 27.0256 18.7147C27.0932 17.5668 27.1019 16.5108 27.1019 15.7189C27.0984 15.3697 27.0835 15.0569 27.0575 14.7527C27.039 14.5349 27.1934 14.3424 27.4025 14.3231C27.612 14.3055 27.796 14.465 27.8146 14.6826C27.8422 15.0071 27.8582 15.3405 27.8617 15.6736ZM27.2845 22.8181C26.985 24.1511 26.487 25.3994 25.7621 26.6343C25.6905 26.7563 25.5654 26.8236 25.4376 26.8236C25.37 26.8236 25.3016 26.8049 25.2396 26.7654C25.0605 26.6513 25.0043 26.4074 25.1138 26.2208C25.7958 25.059 26.2638 23.8869 26.5445 22.6375C26.5924 22.4243 26.7976 22.2918 27.0012 22.3421C27.2054 22.3921 27.3324 22.6052 27.2845 22.8181ZM23.4427 4.18599C23.4989 3.97538 23.7092 3.8516 23.9108 3.91117C25.2052 4.28814 26.4291 4.82696 27.5483 5.51242C27.7292 5.62325 27.7897 5.86598 27.6834 6.05473C27.6125 6.18025 27.4856 6.25009 27.3554 6.25009C27.29 6.25009 27.2236 6.2325 27.1631 6.19554C26.1007 5.5445 24.9375 5.03278 23.7064 4.67399C23.5041 4.61517 23.3861 4.3966 23.4427 4.18599ZM23.8416 7.98898C23.683 7.84587 23.6656 7.59557 23.8028 7.43024C23.9403 7.26486 24.1801 7.24688 24.3389 7.3898C25.3546 8.30579 26.1715 9.4142 26.7673 10.6847C26.8595 10.8813 26.7814 11.1184 26.5927 11.2145C26.5391 11.2417 26.4821 11.2547 26.4263 11.2547C26.2856 11.2547 26.1503 11.1731 26.0845 11.0325C25.534 9.85871 24.7794 8.83458 23.8416 7.98898ZM24.4981 56.7639C23.2529 57.1556 21.9587 57.4302 20.6517 57.5805C20.6376 57.5821 20.6235 57.5828 20.6096 57.5828C20.4185 57.5828 20.254 57.4328 20.2324 57.2301C20.2094 57.0127 20.3599 56.8169 20.5686 56.793C21.8294 56.6481 23.0778 56.3831 24.2785 56.0054C24.4803 55.9437 24.6915 56.0609 24.7522 56.2702C24.8126 56.4796 24.6989 56.7007 24.4981 56.7639ZM25.7188 50.5027C24.803 51.5556 23.7021 52.3603 22.4471 52.8946C22.4002 52.9147 22.3515 52.9242 22.3037 52.9242C22.1538 52.9242 22.0118 52.8311 21.9517 52.6775C21.8723 52.4751 21.9656 52.2439 22.1599 52.1611C23.3088 51.672 24.3169 50.9349 25.1559 49.9704C25.2967 49.8087 25.5372 49.7957 25.6927 49.9431C25.8482 50.0901 25.8599 50.3406 25.7188 50.5027ZM26.1168 34.7958C26.2896 34.6713 26.5263 34.7167 26.6452 34.8972C27.365 35.9855 27.8832 37.274 28.1855 38.7267C28.23 38.9405 28.0999 39.1515 27.8947 39.1977C27.8676 39.2039 27.8405 39.2068 27.8138 39.2068C27.6389 39.2068 27.4815 39.0801 27.4429 38.8946C27.1616 37.5434 26.6827 36.3497 26.0196 35.3467C25.9005 35.1666 25.9439 34.92 26.1168 34.7958ZM27.2329 47.1524C27.0334 47.0843 26.9249 46.8606 26.9902 46.6526C27.162 46.1061 27.2904 45.5334 27.3715 44.9506C27.4494 44.4336 27.5592 43.6526 27.6207 42.7887C27.6359 42.5703 27.8209 42.4046 28.0276 42.423C28.2369 42.439 28.394 42.6289 28.3784 42.8471C28.3152 43.7401 28.2023 44.543 28.1229 45.069C28.0363 45.6924 27.8978 46.3097 27.7123 46.8995C27.6598 47.0664 27.5112 47.1724 27.3512 47.1724C27.3121 47.1723 27.2722 47.166 27.2329 47.1524ZM31.1791 52.5238C30.3041 53.5601 29.2778 54.4469 28.1287 55.16C28.0677 55.1977 28.0007 55.2157 27.9346 55.2157C27.8051 55.2157 27.6788 55.1467 27.6077 55.0223C27.5004 54.8343 27.5596 54.5912 27.7398 54.4792C28.8208 53.8084 29.786 52.9745 30.6087 52.0004C30.7475 51.8364 30.9872 51.8198 31.1449 51.9649C31.3025 52.1093 31.3179 52.3596 31.1791 52.5238ZM32.0272 33.9241C31.9576 33.9808 31.8753 34.0083 31.7933 34.0083C31.6804 34.0083 31.5688 33.9561 31.4938 33.8562C30.934 33.1099 30.2643 32.3706 29.5034 31.6589C29.2572 31.4285 29.0408 31.1661 28.8605 30.8785C28.7457 30.6953 28.795 30.4499 28.9705 30.3302C29.1463 30.2103 29.3817 30.2617 29.4966 30.4449C29.6407 30.6748 29.8139 30.8849 30.0111 31.0694C30.8051 31.8121 31.5053 32.5855 32.0924 33.3681C32.2217 33.5404 32.1926 33.7895 32.0272 33.9241ZM34.0464 46.8987C33.8502 47.6412 33.6031 48.3626 33.311 49.0449C33.2481 49.1923 33.1091 49.28 32.9638 49.28C32.9121 49.28 32.8596 49.2687 32.8093 49.2453C32.6176 49.1564 32.5315 48.9222 32.6171 48.7224C32.8935 48.0762 33.1277 47.3927 33.313 46.6904C33.4654 46.1013 33.5954 45.5191 33.699 44.9623C33.7389 44.7476 33.9379 44.6091 34.1445 44.6488C34.3504 44.6905 34.4851 44.8983 34.4452 45.1131C34.3382 45.6883 34.2041 46.289 34.0464 46.8987ZM34.4184 41.4325C34.4137 41.4327 34.4091 41.4327 34.4047 41.4327C34.2009 41.4327 34.0323 41.2644 34.025 41.0507C33.9786 39.6856 33.7501 38.4385 33.3264 37.2382C33.2539 37.033 33.3548 36.8053 33.5519 36.7297C33.7488 36.6543 33.9672 36.7595 34.0397 36.9647C34.4854 38.2271 34.7361 39.5924 34.7847 41.0225C34.7921 41.2412 34.6281 41.4248 34.4184 41.4325Z" fill="#D7172A"/>
</g>
<defs>
<clipPath id="clip0_120_187">
<rect width="38" height="61" fill="white"/>
</clipPath>
</defs>
</svg>
