<svg width="35" height="61" viewBox="0 0 35 61" fill="none" xmlns="http://www.w3.org/2000/svg">
<g clip-path="url(#clip0_120_203)">
<path d="M34.7638 4.69425C33.1925 -2.12792 20.2644 -1.24515 19.3356 5.65756C19.6928 21.5493 19.8358 27.4887 19.6213 33.4281C18.3357 33.5886 15.2644 33.5886 14.193 33.4281C15.6216 18.9809 16.1214 14.9678 16.6215 10.3127C17.1216 6.37985 16.0502 1.48392 11.6215 0.600945C9.40751 0.119486 7.26465 0.279972 5.19293 0.921917C2.19315 1.88523 0.478936 4.21279 0.478936 7.42331V8.7074C0.478936 13.9245 0.478936 18.66 0.050293 34.0702C0.050293 37.8426 2.47879 40.3306 5.69308 40.9728C10.1214 42.0964 15.0499 41.0529 19.5501 41.0529C19.4072 46.6713 19.3357 50.2028 19.2642 55.4199C19.2642 56.0619 19.3356 56.8645 19.5501 57.4263C20.4071 60.8776 24.5496 61.1185 27.6928 60.958C33.7638 61.1185 34.121 57.1857 34.4066 52.6107C34.9068 38.1635 34.4066 23.7164 34.9068 7.26263C34.9783 6.45999 34.9783 5.49688 34.7638 4.69425ZM13.086 9.7446C13.1052 9.59411 13.1314 9.34935 13.1472 9.04094C13.1589 8.81989 13.3249 8.65198 13.5246 8.66354C13.7215 8.67646 13.8718 8.86636 13.8604 9.08757C13.843 9.42363 13.8142 9.69227 13.7929 9.85866L13.7849 9.92785C13.6719 10.9803 13.5591 12.0001 13.4349 13.1157C13.4124 13.3187 13.2584 13.4672 13.0811 13.4672C13.0663 13.4672 13.0513 13.4662 13.0363 13.4641C12.8406 13.4366 12.7018 13.236 12.7262 13.0161C12.85 11.9017 12.9628 10.8832 13.0758 9.83185L13.086 9.7446ZM11.35 33.1103C11.3404 33.2182 11.3357 33.3256 11.3357 33.4324C11.3357 34.5321 11.854 35.5768 12.6884 36.1584C12.856 36.2752 12.9076 36.5224 12.8035 36.711C12.736 36.8335 12.6192 36.9007 12.4998 36.9007C12.4356 36.9007 12.3705 36.8813 12.3118 36.8403C11.2691 36.1135 10.6214 34.8077 10.6214 33.4325C10.6214 33.2994 10.6272 33.1654 10.6392 33.0303C10.6589 32.8099 10.8332 32.6484 11.0302 32.671C11.2264 32.6931 11.3695 32.8896 11.35 33.1103ZM11.0384 29.0213C11.1841 27.5685 11.3189 26.2391 11.444 25.0175C11.4667 24.7973 11.645 24.6391 11.8396 24.6646C12.0356 24.6901 12.1762 24.889 12.1537 25.1092C12.0287 26.3304 11.8939 27.659 11.7481 29.1114C11.7275 29.3162 11.573 29.4677 11.3938 29.4677C11.3803 29.4677 11.3667 29.4669 11.3531 29.4651C11.1573 29.4403 11.0162 29.2415 11.0384 29.0213ZM12.5683 21.109C12.5468 21.3132 12.3925 21.4633 12.2141 21.4633C12.1999 21.4633 12.186 21.4623 12.1717 21.4606C11.9759 21.4345 11.8358 21.235 11.8588 21.015C12.0189 19.4894 12.1598 18.1756 12.2859 17.0142C12.31 16.7939 12.489 16.6375 12.6837 16.6644C12.8795 16.6912 13.0189 16.8913 12.995 17.1114C12.8689 18.272 12.7284 19.5847 12.5683 21.109ZM5.77958 4.07602C5.96758 4.0098 6.16847 4.12558 6.22826 4.33683C6.2879 4.54809 6.18415 4.77383 5.99615 4.84101C4.32954 5.43652 4.07826 6.40393 4.05243 7.27182C4.04597 7.48873 3.88747 7.65961 3.69565 7.65961C3.69165 7.65961 3.68761 7.65961 3.68344 7.65941C3.48636 7.65194 3.33186 7.46637 3.33851 7.24477C3.38508 5.68305 4.18361 4.64645 5.77958 4.07602ZM3.33415 11.2842C3.33469 11.063 3.4944 10.8839 3.69129 10.8839H3.69215C3.88936 10.8845 4.04893 11.0645 4.04843 11.2861C4.04583 12.5071 4.03936 13.8069 4.02419 15.3148C4.02194 15.5348 3.86254 15.7116 3.66704 15.7116C3.66583 15.7116 3.66444 15.7116 3.66304 15.7116C3.46583 15.7091 3.30765 15.5274 3.3099 15.3058C3.32511 13.8007 3.33154 12.5032 3.33415 11.2842ZM3.25483 19.3286C3.25865 19.1071 3.41961 18.9396 3.61876 18.9349C3.81583 18.9392 3.97276 19.1222 3.96911 19.3438C3.9489 20.5525 3.92326 21.8844 3.89133 23.3721C3.88679 23.5904 3.72776 23.7638 3.53454 23.7638C3.53158 23.7638 3.52861 23.7638 3.52583 23.7636C3.32861 23.7583 3.17251 23.5743 3.1774 23.3529C3.20911 21.8668 3.23458 20.5361 3.25483 19.3286ZM2.98154 31.4027C3.0199 29.9622 3.05408 28.6245 3.08479 27.3774C3.09018 27.1597 3.2489 26.9873 3.44158 26.9873C3.4449 26.9873 3.44822 26.9873 3.45169 26.9875C3.64876 26.9935 3.80411 27.1781 3.79872 27.3997C3.76804 28.6472 3.73386 29.9857 3.69547 31.4266C3.68972 31.6441 3.53104 31.816 3.33868 31.816C3.33501 31.816 3.33154 31.816 3.32786 31.8158C3.13065 31.8091 2.97561 31.6242 2.98154 31.4027ZM6.76365 37.5412C6.72615 37.7284 6.58858 37.8581 6.42744 37.8581C6.40269 37.8581 6.3774 37.855 6.35176 37.8485C6.35122 37.8485 6.32265 37.8412 6.32229 37.841C6.2794 37.8302 6.23669 37.8205 6.19394 37.812C5.34222 37.6419 3.81969 37.1246 3.18386 35.5693C3.10154 35.3679 3.18004 35.1296 3.35929 35.0371C3.5384 34.9448 3.75043 35.0324 3.83293 35.2342C4.35172 36.5032 5.74369 36.9069 6.31811 37.0217C6.37201 37.0323 6.42622 37.0444 6.48029 37.0584C6.67226 37.1074 6.80672 37.3255 6.76365 37.5412ZM9.07183 3.92593C9.07933 3.70468 9.24551 3.52421 9.4424 3.5405C9.98787 3.56402 10.5384 3.63553 11.0786 3.75292L11.1235 3.76251C11.8962 3.91633 12.5219 4.32335 12.9819 4.97135C13.1048 5.14456 13.0795 5.39715 12.9254 5.53532C12.8596 5.59432 12.781 5.62293 12.7029 5.62293C12.5981 5.62293 12.494 5.5712 12.4235 5.47184C12.0701 4.97412 11.6038 4.67334 10.9976 4.55262L10.9437 4.54106C10.4383 4.43134 9.92404 4.36452 9.41483 4.34237C9.21779 4.3339 9.06415 4.14737 9.07183 3.92593ZM13.5952 38.1594C12.7255 38.2171 11.5865 38.2833 10.4864 38.2833C10.3159 38.2833 10.1483 38.2817 9.98368 38.2786C9.78647 38.2747 9.62933 38.0921 9.63265 37.8704C9.63597 37.6486 9.79586 37.4748 9.9959 37.476C11.2016 37.4985 12.5609 37.4238 13.553 37.3584C13.7463 37.3382 13.9189 37.5138 13.9306 37.7352C13.9423 37.9567 13.7921 38.1465 13.5952 38.1594ZM23.2942 27.06C23.2946 27.2816 23.1348 27.4615 22.9376 27.4619C22.9374 27.4619 22.9373 27.4619 22.9371 27.4619C22.74 27.4619 22.5803 27.2826 22.5799 27.0612C22.5782 25.837 22.5672 24.5139 22.5479 23.038C22.5451 22.8164 22.7025 22.6342 22.8998 22.6309H22.9052C23.1 22.6309 23.2592 22.8066 23.2621 23.0263C23.2815 24.5061 23.2925 25.8327 23.2942 27.06ZM23.1962 18.9957C23.2002 19.2171 23.0438 19.4007 22.8466 19.4054C22.8442 19.4054 22.8415 19.4054 22.8389 19.4054C22.6452 19.4054 22.4861 19.2314 22.4819 19.0125C22.4586 17.7733 22.4315 16.4371 22.4007 14.9856C22.396 14.764 22.5519 14.5802 22.7491 14.5749C22.9392 14.551 23.1099 14.7448 23.1146 14.9664C23.1455 16.4186 23.1729 17.7556 23.1962 18.9957ZM22.5705 6.51879C22.7795 6.50057 22.9315 6.6883 22.9366 6.90971L23.0267 10.938C23.0318 11.1596 22.8759 11.3436 22.6787 11.3491C22.6757 11.3493 22.6725 11.3493 22.6696 11.3493C22.4765 11.3493 22.3175 11.1761 22.3128 10.9579L22.2227 6.9301C22.2176 6.70849 22.3735 6.52429 22.5705 6.51879ZM21.0455 37.8308C20.9908 37.9898 20.8556 38.0872 20.7124 38.0872C20.6695 38.0872 20.6258 38.0783 20.5834 38.0597C20.2528 37.9155 19.905 37.8424 19.5501 37.8424C18.8446 37.8424 18.0666 37.8665 17.1719 37.9163C16.9826 37.9185 16.8207 37.7701 16.7995 37.5616C16.5728 37.5614 16.2929 37.5596 15.9883 37.5538C15.7911 37.5498 15.6339 37.3672 15.6373 37.1456C15.6408 36.924 15.8012 36.7392 16.0005 36.7511C16.313 36.7572 16.599 36.759 16.8269 36.759C17.3173 36.759 18.5647 36.7494 19.5529 36.6598C19.7474 36.6369 19.9218 36.8064 19.9376 37.0274C19.9385 37.0396 19.939 37.0515 19.9388 37.0635C20.2475 37.1013 20.5499 37.1842 20.8418 37.3115C21.0257 37.3917 21.1168 37.6243 21.0455 37.8308ZM22.172 34.8758C22.3573 34.4643 22.4596 34.0211 22.4762 33.5584C22.5056 32.737 22.5289 31.9203 22.5456 31.0808C22.5498 30.8592 22.707 30.6677 22.9106 30.6887C23.1078 30.6936 23.264 30.8772 23.2595 31.0988C23.2428 31.943 23.2196 32.7646 23.1898 33.5908C23.1692 34.169 23.0412 34.7232 22.8096 35.238C22.7467 35.3777 22.6209 35.4582 22.4905 35.4582C22.4364 35.4582 22.3813 35.4443 22.3297 35.4151C22.1536 35.315 22.0831 35.0736 22.172 34.8758ZM22.397 40.78C22.3804 40.5591 22.5262 40.3649 22.7228 40.3461C22.9188 40.3247 23.0921 40.4913 23.1089 40.7121C23.1174 40.8254 23.1216 40.9388 23.1216 41.0531L23.1202 41.1675C23.0869 42.4746 23.0576 43.6644 23.0314 44.7837C23.0264 45.0016 22.8675 45.1744 22.6747 45.1744C22.6715 45.1744 22.6684 45.1744 22.665 45.1742C22.468 45.1685 22.3123 44.9841 22.3175 44.7625C22.3437 43.6428 22.373 42.4522 22.4063 41.1446L22.4073 41.0531C22.4073 40.9616 22.4038 40.8705 22.397 40.78ZM22.1597 52.8194C22.1813 51.4277 22.2041 50.1196 22.2305 48.791C22.2346 48.5723 22.3937 48.3985 22.5873 48.3985C22.59 48.3985 22.5926 48.3985 22.5953 48.3987C22.7925 48.4036 22.9489 48.5872 22.9446 48.8086C22.9184 50.136 22.8956 51.4431 22.8739 52.8336C22.8704 53.0526 22.7112 53.2278 22.517 53.2278C22.5149 53.2278 22.5126 53.2278 22.5105 53.2278C22.3133 53.2239 22.1564 53.041 22.1597 52.8194ZM26.4534 57.7832L26.372 57.7836C24.6511 57.7836 23.3038 57.52 22.6733 57.0605C22.5078 56.94 22.4605 56.6915 22.5679 56.5056C22.675 56.3192 22.896 56.2661 23.0618 56.3872C23.4559 56.6743 24.5317 56.981 26.3697 56.981L26.4489 56.9805C26.6435 56.971 26.8071 57.1577 26.8083 57.3793C26.8095 57.601 26.6507 57.7818 26.4534 57.7832ZM28.1744 4.04704C27.0219 3.94651 25.803 4.11836 24.7863 4.5228C24.7469 4.5387 24.7066 4.54612 24.667 4.54612C24.52 4.54612 24.3822 4.44326 24.3304 4.27864C24.2645 4.06976 24.3618 3.84029 24.5477 3.7664C25.6575 3.32472 26.9788 3.13818 28.2295 3.24674C28.4261 3.26379 28.5733 3.45679 28.5581 3.67783C28.5429 3.89888 28.3701 4.0635 28.1744 4.04704ZM30.8392 56.7826C30.6968 57.0419 30.4634 57.2512 30.1455 57.4044C30.0995 57.4265 30.0517 57.4371 30.0048 57.4371C29.8663 57.4371 29.7345 57.3459 29.6764 57.1939C29.5987 56.9901 29.6825 56.7542 29.8637 56.6668C30.044 56.5798 30.1677 56.4771 30.2313 56.3611C30.5632 55.7569 30.7004 54.3631 30.7749 53.3673C30.7915 53.1464 30.9641 52.9816 31.1607 53.0008C31.3574 53.0194 31.5031 53.2134 31.4868 53.4343C31.3939 54.6761 31.2443 56.0446 30.8392 56.7826ZM31.6444 49.3865C31.639 49.6042 31.4801 49.7765 31.2876 49.7765C31.2841 49.7765 31.2808 49.7765 31.2773 49.7763C31.0801 49.77 30.9249 49.5852 30.9304 49.3638C30.9644 48.0236 30.9908 46.6833 31.0115 45.3393C31.015 45.1175 31.1826 44.9399 31.3748 44.9448C31.572 44.9487 31.7292 45.1315 31.7258 45.353C31.705 46.7002 31.6784 48.0436 31.6444 49.3865ZM31.772 41.32C31.7703 41.5405 31.6107 41.7178 31.4149 41.7178C31.4138 41.7178 31.4128 41.7178 31.4117 41.7178C31.2145 41.7158 31.056 41.5346 31.0577 41.3129C31.0684 39.9779 31.0748 38.6362 31.0788 37.2851C31.0795 37.0639 31.2393 36.8851 31.436 36.8851H31.4372C31.6344 36.886 31.7938 37.0662 31.7931 37.2878C31.7891 38.6405 31.7827 39.9836 31.772 41.32ZM31.7992 33.2565C31.799 33.4781 31.6393 33.6576 31.4421 33.6576C31.2449 33.6574 31.0848 33.4777 31.0849 33.2561L31.0853 29.2256C31.0853 29.004 31.2452 28.8243 31.4424 28.8243C31.6396 28.8243 31.7996 29.004 31.7996 29.2256L31.7992 33.2565ZM31.8032 25.1963C31.8029 25.4175 31.643 25.5966 31.4461 25.5966C31.4459 25.5966 31.4455 25.5966 31.4452 25.5966C31.248 25.5962 31.0886 25.4161 31.0889 25.1943C31.0915 23.8607 31.0959 22.517 31.1036 21.1622C31.105 20.9407 31.2787 20.7538 31.463 20.7634C31.6602 20.7647 31.8191 20.9456 31.8179 21.1672C31.8102 22.5209 31.8059 23.8634 31.8032 25.1963ZM31.8507 17.1392C31.8482 17.359 31.6888 17.5354 31.4937 17.5354C31.4921 17.5354 31.4905 17.5354 31.489 17.5354C31.2918 17.5327 31.1339 17.3506 31.1364 17.129C31.1512 15.7967 31.17 14.4526 31.1943 13.0954C31.1983 12.8738 31.3671 12.7019 31.5585 12.7021C31.7558 12.7066 31.9124 12.8899 31.9085 13.1115C31.8843 14.4667 31.8655 15.8088 31.8507 17.1392ZM32.0639 6.94286C32.0575 7.01341 32.0535 7.08336 32.0514 7.15331C32.0317 7.80035 32.0135 8.44446 31.9966 9.08524C31.9909 9.30275 31.8322 9.4746 31.6398 9.4746C31.6362 9.4746 31.6327 9.4746 31.629 9.4744C31.4319 9.46794 31.2768 9.28293 31.2827 9.06132C31.2996 8.41938 31.3177 7.7741 31.3374 7.1257C31.3402 7.03753 31.3453 6.94952 31.3533 6.86215C31.3697 6.67719 31.378 6.49904 31.378 6.33386C31.378 6.0458 31.3522 5.88258 31.3431 5.84827C31.3301 5.79927 31.3177 5.7495 31.3062 5.69934C31.2791 5.58175 31.2275 5.46361 31.1529 5.34839C31.0369 5.16928 31.072 4.91826 31.2315 4.78775C31.3909 4.65704 31.6145 4.69681 31.7305 4.87612C31.8581 5.07325 31.9481 5.28273 31.9978 5.49888C32.0069 5.53885 32.0168 5.57826 32.0273 5.61743C32.0686 5.77242 32.0923 6.03344 32.0923 6.33386C32.0924 6.52565 32.0828 6.73044 32.0639 6.94286Z" fill="#D7172A"/>
</g>
<defs>
<clipPath id="clip0_120_203">
<rect width="35" height="61" fill="white"/>
</clipPath>
</defs>
</svg>
