<!-- icon666.com - MILLIONS OF FREE VECTOR ICONS --><svg viewBox="0 0 512 512.00124" xmlns="http://www.w3.org/2000/svg"><path d="m490.75 55.253906c-3.128906-.457031-6.289062.589844-8.523438 2.824219l-53.140624 53.144531-28.308594-28.308594 53.144531-53.140624c2.234375-2.238282 3.28125-5.398438 2.824219-8.523438-.460938-3.128906-2.367188-5.855469-5.152344-7.351562-42.714844-23.007813-69.820312-18.082032-107.414062 19.511718-35.597657 35.597656-41.894532 61.792969-22.921876 100.742188l-54.339843 54.339844-126.257813-126.253907c-3.902344-3.90625-10.234375-3.90625-14.140625 0l-3.574219 3.574219-63.4375-62.890625c-3.910156-3.875-10.214843-3.863281-14.109374.03125l-42.445313 42.445313c-1.882813 1.878906-2.9375 4.433593-2.9296875 7.09375.0039063 2.65625 1.0703125 5.207031 2.9609375 7.078124l63.378906 62.824219-3.507812 3.507813c-3.90625 3.902344-3.90625 10.234375 0 14.140625l126.253906 126.257812-54.957031 54.960938c-38.953125-18.976563-65.144532-12.679688-100.746094 22.921875-37.589844 37.589844-42.511719 64.695312-19.507812 107.410156 1.5 2.78125 4.226562 4.695312 7.351562 5.152344 3.128906.453125 6.289062-.585938 8.523438-2.824219l53.144531-53.140625 28.304687 28.304688-53.144531 53.144531c-2.234375 2.234375-3.28125 5.394531-2.824219 8.519531.460938 3.128906 2.371094 5.855469 5.152344 7.355469 42.59375 22.9375 69.714844 18.179687 107.414062-19.515625 35.597657-35.597656 41.894532-61.789063 22.921876-100.742188l54.957031-54.957031c11.109375 11.109375 100.601562 100.605469 112.941406 112.945313 31.511719 31.5 73.066406 50.511718 117.390625 53.804687l18.777344 19.308594c3.847656 3.953125 10.179687 4.050781 14.140625.199219 3.957031-3.851563 4.046875-10.183594.195312-14.144532l-18.882812-19.421875c-3.25-44.394531-22.269531-86.015625-53.816407-117.550781-12.320312-12.324219-101.605468-101.617188-112.9375-112.949219l54.339844-54.34375c40.558594 19.757813 66.617188 11.203125 100.742188-22.917969 37.59375-37.597656 42.519531-64.699218 19.511718-107.414062-1.5-2.78125-4.226562-4.691406-7.351562-5.152344zm-438.25-31.121094 56.300781 55.816407-28.296875 28.304687-56.308594-55.816406zm81.089844 59.316407 279.734375 279.742187-49.523438 49.523438c-8.179687-8.183594-271.058593-271.070313-279.734375-279.742188zm37.855468 285.410156c-3.121093 3.121094-3.824218 7.925781-1.730468 11.8125 18.839844 34.972656 15.542968 52.199219-16.035156 83.777344-27.675782 27.675781-44.328126 33.632812-71.554688 22.011719l50.304688-50.308594c1.875-1.875 2.929687-4.417969 2.929687-7.070313 0-2.652343-1.054687-5.195312-2.929687-7.070312l-42.445313-42.445313c-3.902344-3.902344-10.234375-3.902344-14.140625 0l-50.304688 50.308594c-11.625-27.226562-5.664062-43.878906 22.011719-71.554688 31.578125-31.578124 48.804688-34.875 83.777344-16.035156 3.886719 2.09375 8.6875 1.390625 11.8125-1.730468l60.113281-60.113282 28.300782 28.304688zm206.613282 57.878906 49.289062-49.292969c23.285156 25.414063 37.984375 57.332032 42.175782 91.464844-34.128907-4.199218-66.042969-18.894531-91.464844-42.171875zm86.390625-273.058593c-31.582031 31.578124-48.804688 34.875-83.777344 16.035156-3.886719-2.09375-8.691406-1.394532-11.8125 1.730468l-59.496094 59.492188-28.304687-28.304688 59.492187-59.492187c3.125-3.125 3.828125-7.925781 1.734375-11.8125-18.84375-34.976563-15.542968-52.199219 16.035156-83.777344 27.675782-27.675781 44.324219-33.636719 71.554688-22.015625l-50.308594 50.308594c-1.875 1.878906-2.929687 4.421875-2.929687 7.070312 0 2.652344 1.054687 5.195313 2.929687 7.070313l42.445313 42.445313c3.90625 3.90625 10.238281 3.90625 14.140625 0l50.308594-50.308594c11.625 27.230468 5.664062 43.882812-22.011719 71.558594zm0 0" fill="#000000" style="fill: rgb(215, 23, 42);"></path><path d="m288.457031 275.753906c0 5.519532-4.476562 10-10 10-5.519531 0-9.996093-4.480468-9.996093-10 0-5.523437 4.476562-10 9.996093-10 5.523438 0 10 4.476563 10 10zm0 0" fill="#000000" style="fill: rgb(215, 23, 42);"></path><path d="m253.710938 236.867188-115.589844-115.597657c-3.902344-3.902343-10.234375-3.902343-14.140625 0-3.902344 3.90625-3.90625 10.238281 0 14.144531l115.589843 115.59375c3.90625 3.90625 10.234376 3.90625 14.140626 0 3.902343-3.902343 3.902343-10.234374 0-14.140624zm0 0" fill="#000000" style="fill: rgb(215, 23, 42);"></path></svg>